<svg xmlns="http://www.w3.org/2000/svg" xmlns:xlink="http://www.w3.org/1999/xlink" width="500" zoomAndPan="magnify" viewBox="0 0 375 374.999991" height="500" preserveAspectRatio="xMidYMid meet" version="1.0"><defs><g/><clipPath id="3042b2f76e"><path d="M 48.363281 48.363281 L 326.636719 48.363281 L 326.636719 326.636719 L 48.363281 326.636719 Z M 48.363281 48.363281 " clip-rule="nonzero"/></clipPath><clipPath id="b90edc851c"><path d="M 187.5 48.363281 C 110.65625 48.363281 48.363281 110.65625 48.363281 187.5 C 48.363281 264.34375 110.65625 326.636719 187.5 326.636719 C 264.34375 326.636719 326.636719 264.34375 326.636719 187.5 C 326.636719 110.65625 264.34375 48.363281 187.5 48.363281 " clip-rule="nonzero"/></clipPath><clipPath id="417ed45343"><path d="M 95.632812 151 L 167.632812 151 L 167.632812 203 L 95.632812 203 Z M 95.632812 151 " clip-rule="nonzero"/></clipPath><clipPath id="5aeee9d3c4"><path d="M 136 131.273438 L 140 131.273438 L 140 150 L 136 150 Z M 136 131.273438 " clip-rule="nonzero"/></clipPath><clipPath id="4f611d9331"><path d="M 198.613281 144.847656 L 260.042969 144.847656 L 260.042969 206.273438 L 198.613281 206.273438 Z M 198.613281 144.847656 " clip-rule="nonzero"/></clipPath><clipPath id="c380ccd259"><path d="M 198.613281 146 L 260.042969 146 L 260.042969 206 L 198.613281 206 Z M 198.613281 146 " clip-rule="nonzero"/></clipPath><clipPath id="329e8ffd40"><path d="M 198.613281 144.847656 L 260.042969 144.847656 L 260.042969 206.273438 L 198.613281 206.273438 Z M 198.613281 144.847656 " clip-rule="nonzero"/></clipPath></defs><g clip-path="url(#3042b2f76e)"><g clip-path="url(#b90edc851c)"><path fill="#bf9e18" d="M 48.363281 48.363281 L 326.636719 48.363281 L 326.636719 326.636719 L 48.363281 326.636719 Z M 48.363281 48.363281 " fill-opacity="1" fill-rule="nonzero"/></g></g><path stroke-linecap="round" transform="matrix(0.000000000000000058, 0.953674, -0.953026, 0.000000000000000058, 189.405578, 131.275801)" fill="none" stroke-linejoin="miter" d="M 2.000467 1.999502 L 89.937536 1.999502 " stroke="#fffdf5" stroke-width="4" stroke-opacity="1" stroke-miterlimit="4"/><path stroke-linecap="round" transform="matrix(0.954655, -0.00605536, 0.0060449, 0.953007, 101.384851, 217.535187)" fill="none" stroke-linejoin="miter" d="M 1.998358 2.000617 L 178.698326 2.00027 " stroke="#fffdf5" stroke-width="4" stroke-opacity="1" stroke-miterlimit="4"/><g clip-path="url(#417ed45343)"><path fill="#fffdf5" d="M 113.246094 177.925781 C 110.902344 177.960938 108.644531 177.535156 106.476562 176.652344 C 104.304688 175.765625 102.390625 174.496094 100.738281 172.835938 C 99.082031 170.847656 97.847656 168.625 97.027344 166.171875 C 96.210938 163.71875 95.867188 161.199219 96 158.617188 C 96.015625 158.40625 96.066406 158.203125 96.160156 158.015625 C 96.25 157.824219 96.371094 157.65625 96.527344 157.511719 C 96.683594 157.367188 96.859375 157.257812 97.054688 157.179688 C 97.25 157.101562 97.453125 157.0625 97.667969 157.0625 L 110.316406 157.0625 L 110.316406 153.34375 C 110.316406 153.125 110.359375 152.910156 110.441406 152.707031 C 110.527344 152.503906 110.648438 152.320312 110.804688 152.164062 C 110.960938 152.007812 111.140625 151.886719 111.347656 151.804688 C 111.550781 151.71875 111.765625 151.675781 111.984375 151.675781 L 165.617188 151.675781 C 165.839844 151.671875 166.054688 151.714844 166.261719 151.796875 C 166.46875 151.882812 166.652344 152 166.8125 152.160156 C 166.96875 152.316406 167.09375 152.496094 167.179688 152.703125 C 167.265625 152.90625 167.308594 153.121094 167.308594 153.34375 L 167.308594 165.277344 C 167.308594 166.574219 167.222656 167.867188 167.046875 169.152344 C 166.875 170.4375 166.613281 171.707031 166.269531 172.957031 C 165.921875 174.207031 165.496094 175.429688 164.984375 176.621094 C 164.472656 177.816406 163.882812 178.96875 163.21875 180.082031 C 162.550781 181.195312 161.8125 182.257812 161 183.269531 C 160.191406 184.285156 159.316406 185.238281 158.375 186.132812 C 157.4375 187.027344 156.441406 187.855469 155.390625 188.617188 C 154.339844 189.378906 153.242188 190.0625 152.097656 190.675781 L 161.144531 190.675781 C 161.554688 190.664062 161.960938 190.695312 162.363281 190.769531 C 162.765625 190.839844 163.15625 190.949219 163.535156 191.101562 C 163.914062 191.25 164.277344 191.4375 164.617188 191.660156 C 164.960938 191.878906 165.277344 192.132812 165.570312 192.417969 C 165.863281 192.703125 166.125 193.015625 166.355469 193.355469 C 166.585938 193.691406 166.777344 194.046875 166.9375 194.425781 C 167.09375 194.800781 167.214844 195.191406 167.296875 195.589844 C 167.375 195.992188 167.417969 196.394531 167.417969 196.804688 C 167.417969 197.210938 167.375 197.617188 167.296875 198.015625 C 167.214844 198.417969 167.09375 198.804688 166.9375 199.183594 C 166.777344 199.558594 166.585938 199.914062 166.355469 200.253906 C 166.125 200.589844 165.863281 200.902344 165.570312 201.1875 C 165.277344 201.472656 164.960938 201.726562 164.617188 201.949219 C 164.277344 202.171875 163.914062 202.355469 163.535156 202.507812 C 163.15625 202.65625 162.765625 202.765625 162.363281 202.839844 C 161.960938 202.910156 161.554688 202.941406 161.144531 202.929688 L 113.792969 202.929688 C 113.386719 202.941406 112.980469 202.910156 112.578125 202.839844 C 112.175781 202.765625 111.785156 202.65625 111.40625 202.507812 C 111.027344 202.355469 110.664062 202.171875 110.320312 201.949219 C 109.980469 201.726562 109.660156 201.472656 109.371094 201.1875 C 109.078125 200.902344 108.816406 200.589844 108.585938 200.253906 C 108.355469 199.914062 108.164062 199.558594 108.003906 199.183594 C 107.847656 198.804688 107.726562 198.417969 107.644531 198.015625 C 107.5625 197.617188 107.523438 197.210938 107.523438 196.804688 C 107.523438 196.394531 107.5625 195.992188 107.644531 195.589844 C 107.726562 195.191406 107.847656 194.800781 108.003906 194.425781 C 108.164062 194.046875 108.355469 193.691406 108.585938 193.355469 C 108.816406 193.015625 109.078125 192.703125 109.371094 192.417969 C 109.660156 192.132812 109.980469 191.878906 110.320312 191.660156 C 110.664062 191.4375 111.027344 191.25 111.40625 191.101562 C 111.785156 190.949219 112.175781 190.839844 112.578125 190.769531 C 112.980469 190.695312 113.386719 190.664062 113.792969 190.675781 L 125.46875 190.675781 C 122.816406 189.242188 120.445312 187.4375 118.355469 185.261719 C 116.269531 183.085938 114.566406 180.640625 113.246094 177.925781 Z M 110.300781 165.277344 L 110.300781 160.414062 L 99.347656 160.414062 C 99.394531 162.277344 99.75 164.082031 100.410156 165.824219 C 101.070312 167.570312 102.003906 169.15625 103.203125 170.582031 C 104.355469 171.734375 105.675781 172.644531 107.160156 173.3125 C 108.644531 173.984375 110.199219 174.371094 111.824219 174.476562 C 110.816406 171.492188 110.308594 168.425781 110.300781 165.277344 Z M 113.792969 194.019531 C 113.425781 194.019531 113.070312 194.089844 112.730469 194.230469 C 112.386719 194.371094 112.085938 194.574219 111.824219 194.835938 C 111.5625 195.097656 111.363281 195.398438 111.222656 195.738281 C 111.078125 196.082031 111.007812 196.4375 111.007812 196.804688 C 111.007812 197.175781 111.078125 197.53125 111.222656 197.871094 C 111.363281 198.210938 111.5625 198.515625 111.824219 198.773438 C 112.085938 199.035156 112.386719 199.238281 112.730469 199.378906 C 113.070312 199.519531 113.425781 199.589844 113.792969 199.589844 L 161.144531 199.589844 C 161.515625 199.589844 161.871094 199.519531 162.210938 199.378906 C 162.554688 199.238281 162.855469 199.035156 163.117188 198.773438 C 163.378906 198.515625 163.578125 198.210938 163.71875 197.871094 C 163.863281 197.53125 163.933594 197.175781 163.933594 196.804688 C 163.933594 196.4375 163.863281 196.082031 163.71875 195.738281 C 163.578125 195.398438 163.378906 195.097656 163.117188 194.835938 C 162.855469 194.574219 162.554688 194.371094 162.210938 194.230469 C 161.871094 194.089844 161.515625 194.019531 161.144531 194.019531 Z M 138.796875 190.675781 C 139.625 190.671875 140.449219 190.625 141.273438 190.539062 C 142.097656 190.453125 142.914062 190.328125 143.722656 190.160156 C 144.535156 189.996094 145.335938 189.789062 146.125 189.546875 C 146.917969 189.300781 147.691406 189.019531 148.457031 188.699219 C 149.21875 188.378906 149.964844 188.019531 150.691406 187.625 C 151.421875 187.230469 152.125 186.804688 152.8125 186.339844 C 153.5 185.878906 154.160156 185.382812 154.796875 184.851562 C 155.433594 184.324219 156.042969 183.765625 156.625 183.179688 C 157.207031 182.589844 157.761719 181.976562 158.28125 181.332031 C 158.804688 180.691406 159.292969 180.023438 159.75 179.335938 C 160.207031 178.644531 160.628906 177.933594 161.015625 177.203125 C 161.402344 176.46875 161.753906 175.722656 162.066406 174.957031 C 162.378906 174.191406 162.652344 173.410156 162.890625 172.617188 C 163.128906 171.824219 163.324219 171.023438 163.484375 170.210938 C 163.640625 169.398438 163.757812 168.578125 163.835938 167.753906 C 163.914062 166.929688 163.953125 166.105469 163.949219 165.277344 L 163.949219 155.019531 L 113.640625 155.019531 L 113.640625 165.277344 C 113.640625 166.105469 113.675781 166.929688 113.753906 167.753906 C 113.832031 168.578125 113.949219 169.398438 114.109375 170.210938 C 114.265625 171.023438 114.464844 171.824219 114.699219 172.617188 C 114.9375 173.410156 115.210938 174.191406 115.527344 174.957031 C 115.839844 175.722656 116.1875 176.472656 116.574219 177.203125 C 116.960938 177.933594 117.382812 178.644531 117.839844 179.335938 C 118.296875 180.027344 118.785156 180.691406 119.308594 181.335938 C 119.832031 181.976562 120.382812 182.59375 120.964844 183.179688 C 121.546875 183.769531 122.15625 184.328125 122.796875 184.855469 C 123.433594 185.382812 124.09375 185.878906 124.78125 186.339844 C 125.464844 186.804688 126.171875 187.234375 126.898438 187.628906 C 127.628906 188.019531 128.375 188.378906 129.136719 188.699219 C 129.898438 189.019531 130.675781 189.300781 131.46875 189.546875 C 132.257812 189.792969 133.058594 189.996094 133.871094 190.164062 C 134.679688 190.328125 135.496094 190.453125 136.320312 190.539062 C 137.144531 190.625 137.96875 190.671875 138.796875 190.675781 Z M 138.796875 190.675781 " fill-opacity="1" fill-rule="nonzero"/></g><g clip-path="url(#5aeee9d3c4)"><path fill="#fffdf5" d="M 138.328125 149.4375 C 138.105469 149.4375 137.890625 149.394531 137.6875 149.308594 C 137.484375 149.222656 137.300781 149.101562 137.144531 148.945312 C 136.988281 148.789062 136.867188 148.609375 136.785156 148.402344 C 136.699219 148.199219 136.65625 147.984375 136.65625 147.765625 L 136.65625 133.289062 C 136.664062 133.074219 136.714844 132.867188 136.804688 132.671875 C 136.894531 132.476562 137.015625 132.304688 137.171875 132.152344 C 137.328125 132.003906 137.503906 131.890625 137.703125 131.808594 C 137.90625 131.730469 138.113281 131.691406 138.328125 131.691406 C 138.542969 131.691406 138.75 131.730469 138.953125 131.808594 C 139.152344 131.890625 139.328125 132.003906 139.484375 132.152344 C 139.640625 132.304688 139.761719 132.476562 139.851562 132.671875 C 139.941406 132.867188 139.992188 133.074219 140 133.289062 L 140 147.773438 C 140 147.996094 139.957031 148.207031 139.871094 148.410156 C 139.785156 148.613281 139.664062 148.792969 139.507812 148.949219 C 139.351562 149.105469 139.167969 149.226562 138.964844 149.3125 C 138.761719 149.394531 138.546875 149.4375 138.328125 149.4375 Z M 138.328125 149.4375 " fill-opacity="1" fill-rule="nonzero"/></g><path fill="#fffdf5" d="M 150.117188 149.4375 C 149.898438 149.4375 149.683594 149.394531 149.480469 149.308594 C 149.273438 149.226562 149.09375 149.105469 148.9375 148.949219 C 148.777344 148.789062 148.65625 148.609375 148.574219 148.40625 C 148.488281 148.199219 148.445312 147.984375 148.445312 147.765625 L 148.445312 137.761719 C 148.453125 137.546875 148.503906 137.339844 148.59375 137.144531 C 148.683594 136.949219 148.804688 136.777344 148.960938 136.625 C 149.117188 136.476562 149.292969 136.363281 149.492188 136.28125 C 149.695312 136.203125 149.902344 136.160156 150.117188 136.160156 C 150.332031 136.160156 150.539062 136.203125 150.742188 136.28125 C 150.941406 136.363281 151.117188 136.476562 151.273438 136.625 C 151.429688 136.777344 151.550781 136.949219 151.640625 137.144531 C 151.730469 137.339844 151.78125 137.546875 151.789062 137.761719 L 151.789062 147.773438 C 151.789062 147.996094 151.746094 148.207031 151.660156 148.410156 C 151.574219 148.613281 151.453125 148.792969 151.296875 148.949219 C 151.140625 149.105469 150.960938 149.226562 150.757812 149.308594 C 150.550781 149.394531 150.339844 149.4375 150.117188 149.4375 Z M 150.117188 149.4375 " fill-opacity="1" fill-rule="nonzero"/><path fill="#fffdf5" d="M 126.535156 149.4375 C 126.3125 149.4375 126.097656 149.394531 125.894531 149.308594 C 125.691406 149.222656 125.507812 149.101562 125.351562 148.945312 C 125.195312 148.789062 125.074219 148.609375 124.992188 148.402344 C 124.90625 148.199219 124.863281 147.984375 124.863281 147.765625 L 124.863281 137.761719 C 124.875 137.546875 124.921875 137.339844 125.011719 137.144531 C 125.101562 136.949219 125.222656 136.777344 125.378906 136.625 C 125.535156 136.476562 125.710938 136.363281 125.914062 136.28125 C 126.113281 136.203125 126.320312 136.160156 126.535156 136.160156 C 126.75 136.160156 126.960938 136.203125 127.160156 136.28125 C 127.359375 136.363281 127.539062 136.476562 127.691406 136.625 C 127.847656 136.777344 127.972656 136.949219 128.058594 137.144531 C 128.148438 137.339844 128.199219 137.546875 128.207031 137.761719 L 128.207031 147.773438 C 128.207031 147.996094 128.164062 148.207031 128.078125 148.410156 C 127.992188 148.613281 127.871094 148.792969 127.714844 148.949219 C 127.558594 149.105469 127.375 149.226562 127.171875 149.3125 C 126.96875 149.394531 126.753906 149.4375 126.535156 149.4375 Z M 126.535156 149.4375 " fill-opacity="1" fill-rule="nonzero"/><g fill="#fffdf5" fill-opacity="1"><g transform="translate(142.533861, 117.406432)"><g><path d="M 14.8125 -4.015625 C 15.03125 -4.085938 15.253906 -4.0625 15.484375 -3.9375 C 15.722656 -3.8125 15.878906 -3.640625 15.953125 -3.421875 C 16.066406 -3.066406 15.960938 -2.664062 15.640625 -2.21875 C 15.328125 -1.769531 14.898438 -1.347656 14.359375 -0.953125 C 13.828125 -0.554688 13.3125 -0.273438 12.8125 -0.109375 C 12.019531 0.148438 11.347656 0.28125 10.796875 0.28125 C 10.242188 0.289062 9.65625 0.238281 9.03125 0.125 C 8.550781 0.03125 8.160156 -0.0195312 7.859375 -0.03125 C 7.554688 -0.0390625 7.226562 0.0078125 6.875 0.125 C 6.726562 0.175781 6.59375 0.242188 6.46875 0.328125 C 6.351562 0.421875 6.238281 0.519531 6.125 0.625 C 5.863281 0.882812 5.59375 1.0625 5.3125 1.15625 C 5.0625 1.238281 4.816406 1.210938 4.578125 1.078125 C 4.335938 0.953125 4.179688 0.769531 4.109375 0.53125 C 3.972656 0.125 4.0625 -0.195312 4.375 -0.4375 L 6.3125 -1.953125 C 5.1875 -1.796875 4.101562 -1.910156 3.0625 -2.296875 C 2.03125 -2.679688 1.117188 -3.296875 0.328125 -4.140625 C -0.453125 -4.984375 -1.035156 -5.988281 -1.421875 -7.15625 C -1.859375 -8.46875 -1.96875 -9.753906 -1.75 -11.015625 C -1.53125 -12.273438 -1.019531 -13.378906 -0.21875 -14.328125 C 0.570312 -15.285156 1.609375 -15.976562 2.890625 -16.40625 C 4.148438 -16.820312 5.390625 -16.882812 6.609375 -16.59375 C 7.828125 -16.300781 8.894531 -15.710938 9.8125 -14.828125 C 10.726562 -13.941406 11.40625 -12.84375 11.84375 -11.53125 C 12.226562 -10.375 12.359375 -9.238281 12.234375 -8.125 C 12.117188 -7.007812 11.773438 -5.992188 11.203125 -5.078125 C 10.628906 -4.171875 9.867188 -3.441406 8.921875 -2.890625 L 7.625 -1.84375 C 7.957031 -1.914062 8.273438 -1.941406 8.578125 -1.921875 C 8.890625 -1.898438 9.265625 -1.851562 9.703125 -1.78125 C 10.242188 -1.707031 10.710938 -1.664062 11.109375 -1.65625 C 11.503906 -1.644531 11.914062 -1.710938 12.34375 -1.859375 C 12.726562 -1.972656 13.039062 -2.128906 13.28125 -2.328125 C 13.53125 -2.523438 13.742188 -2.757812 13.921875 -3.03125 C 13.992188 -3.132812 14.082031 -3.265625 14.1875 -3.421875 C 14.289062 -3.578125 14.390625 -3.703125 14.484375 -3.796875 C 14.578125 -3.898438 14.6875 -3.972656 14.8125 -4.015625 Z M 0.59375 -7.8125 C 0.914062 -6.832031 1.398438 -6.007812 2.046875 -5.34375 C 2.703125 -4.6875 3.457031 -4.242188 4.3125 -4.015625 C 5.164062 -3.796875 6.039062 -3.832031 6.9375 -4.125 C 7.820312 -4.414062 8.535156 -4.90625 9.078125 -5.59375 C 9.628906 -6.28125 9.96875 -7.082031 10.09375 -8 C 10.226562 -8.925781 10.132812 -9.878906 9.8125 -10.859375 C 9.488281 -11.835938 9 -12.65625 8.34375 -13.3125 C 7.695312 -13.976562 6.953125 -14.421875 6.109375 -14.640625 C 5.265625 -14.859375 4.398438 -14.820312 3.515625 -14.53125 C 2.617188 -14.238281 1.890625 -13.753906 1.328125 -13.078125 C 0.773438 -12.398438 0.429688 -11.597656 0.296875 -10.671875 C 0.171875 -9.753906 0.269531 -8.800781 0.59375 -7.8125 Z M 0.59375 -7.8125 "/></g></g></g><g fill="#fffdf5" fill-opacity="1"><g transform="translate(158.654804, 112.239249)"><g><path d="M 12.203125 -3.9375 C 12.359375 -3.875 12.488281 -3.78125 12.59375 -3.65625 C 12.695312 -3.53125 12.765625 -3.390625 12.796875 -3.234375 C 12.847656 -2.953125 12.796875 -2.722656 12.640625 -2.546875 C 12.484375 -2.378906 12.28125 -2.273438 12.03125 -2.234375 C 11.769531 -2.179688 11.539062 -2.195312 11.34375 -2.28125 C 10.894531 -2.425781 10.492188 -2.734375 10.140625 -3.203125 C 9.785156 -3.671875 9.515625 -4.398438 9.328125 -5.390625 C 9.203125 -6.066406 8.90625 -6.53125 8.4375 -6.78125 C 7.96875 -7.039062 7.410156 -7.113281 6.765625 -7 L 2.671875 -6.234375 L 3.53125 -1.65625 C 3.570312 -1.375 3.523438 -1.125 3.390625 -0.90625 C 3.265625 -0.695312 3.078125 -0.570312 2.828125 -0.53125 C 2.503906 -0.46875 2.210938 -0.507812 1.953125 -0.65625 C 1.703125 -0.800781 1.554688 -1.007812 1.515625 -1.28125 L -0.765625 -13.5625 C -0.816406 -13.820312 -0.765625 -14.066406 -0.609375 -14.296875 C -0.453125 -14.523438 -0.242188 -14.664062 0.015625 -14.71875 L 5.734375 -15.765625 C 6.460938 -15.898438 7.164062 -15.84375 7.84375 -15.59375 C 8.519531 -15.351562 9.097656 -14.953125 9.578125 -14.390625 C 10.054688 -13.828125 10.363281 -13.15625 10.5 -12.375 C 10.644531 -11.613281 10.578125 -10.863281 10.296875 -10.125 C 10.015625 -9.394531 9.585938 -8.8125 9.015625 -8.375 C 9.566406 -8.207031 10.03125 -7.921875 10.40625 -7.515625 C 10.78125 -7.117188 11.035156 -6.613281 11.171875 -6 C 11.378906 -5.238281 11.539062 -4.722656 11.65625 -4.453125 C 11.769531 -4.191406 11.953125 -4.019531 12.203125 -3.9375 Z M 6.984375 -8.78125 C 7.316406 -8.863281 7.613281 -9.054688 7.875 -9.359375 C 8.132812 -9.660156 8.320312 -10.035156 8.4375 -10.484375 C 8.550781 -10.929688 8.5625 -11.410156 8.46875 -11.921875 C 8.351562 -12.566406 8.050781 -13.082031 7.5625 -13.46875 C 7.070312 -13.851562 6.539062 -13.992188 5.96875 -13.890625 L 1.40625 -13.046875 L 2.359375 -7.921875 Z M 6.984375 -8.78125 "/></g></g></g><g fill="#fffdf5" fill-opacity="1"><g transform="translate(173.699159, 109.556543)"><g><path d="M 11.203125 -14.28125 C 11.546875 -14.132812 11.726562 -13.875 11.75 -13.5 C 11.757812 -13.257812 11.691406 -13.03125 11.546875 -12.8125 C 11.390625 -12.582031 11.171875 -12.457031 10.890625 -12.4375 C 10.691406 -12.425781 10.5 -12.460938 10.3125 -12.546875 C 9.4375 -12.984375 8.503906 -13.171875 7.515625 -13.109375 C 6.484375 -13.046875 5.585938 -12.765625 4.828125 -12.265625 C 4.066406 -11.765625 3.488281 -11.085938 3.09375 -10.234375 C 2.695312 -9.390625 2.53125 -8.441406 2.59375 -7.390625 C 2.65625 -6.242188 2.9375 -5.269531 3.4375 -4.46875 C 3.945312 -3.675781 4.613281 -3.085938 5.4375 -2.703125 C 6.257812 -2.316406 7.164062 -2.15625 8.15625 -2.21875 C 9.175781 -2.28125 10.082031 -2.582031 10.875 -3.125 C 11.03125 -3.21875 11.203125 -3.269531 11.390625 -3.28125 C 11.691406 -3.300781 11.945312 -3.195312 12.15625 -2.96875 C 12.320312 -2.769531 12.410156 -2.554688 12.421875 -2.328125 C 12.429688 -2.160156 12.394531 -2 12.3125 -1.84375 C 12.238281 -1.695312 12.128906 -1.578125 11.984375 -1.484375 C 11.460938 -1.148438 10.875 -0.875 10.21875 -0.65625 C 9.5625 -0.445312 8.910156 -0.320312 8.265625 -0.28125 C 6.929688 -0.195312 5.6875 -0.414062 4.53125 -0.9375 C 3.375 -1.46875 2.425781 -2.273438 1.6875 -3.359375 C 0.957031 -4.441406 0.550781 -5.742188 0.46875 -7.265625 C 0.382812 -8.648438 0.628906 -9.925781 1.203125 -11.09375 C 1.773438 -12.257812 2.597656 -13.191406 3.671875 -13.890625 C 4.753906 -14.585938 5.992188 -14.976562 7.390625 -15.0625 C 8.722656 -15.132812 9.992188 -14.875 11.203125 -14.28125 Z M 11.203125 -14.28125 "/></g></g></g><g fill="#fffdf5" fill-opacity="1"><g transform="translate(188.133139, 108.805676)"><g><path d="M 12.03125 -4.6875 C 11.96875 -3.625 11.664062 -2.679688 11.125 -1.859375 C 10.59375 -1.035156 9.894531 -0.410156 9.03125 0.015625 C 8.164062 0.453125 7.234375 0.640625 6.234375 0.578125 C 5.222656 0.515625 4.316406 0.222656 3.515625 -0.296875 C 2.722656 -0.828125 2.113281 -1.535156 1.6875 -2.421875 C 1.257812 -3.304688 1.078125 -4.28125 1.140625 -5.34375 C 1.203125 -6.414062 1.5 -7.367188 2.03125 -8.203125 C 2.5625 -9.046875 3.253906 -9.6875 4.109375 -10.125 C 4.972656 -10.5625 5.910156 -10.75 6.921875 -10.6875 C 7.921875 -10.625 8.820312 -10.328125 9.625 -9.796875 C 10.425781 -9.265625 11.039062 -8.546875 11.46875 -7.640625 C 11.90625 -6.742188 12.09375 -5.757812 12.03125 -4.6875 Z M 10.0625 -4.8125 C 10.101562 -5.5625 9.984375 -6.234375 9.703125 -6.828125 C 9.429688 -7.429688 9.039062 -7.910156 8.53125 -8.265625 C 8.03125 -8.617188 7.457031 -8.816406 6.8125 -8.859375 C 6.15625 -8.898438 5.554688 -8.773438 5.015625 -8.484375 C 4.472656 -8.191406 4.023438 -7.757812 3.671875 -7.1875 C 3.328125 -6.625 3.132812 -5.96875 3.09375 -5.21875 C 3.050781 -4.488281 3.164062 -3.828125 3.4375 -3.234375 C 3.71875 -2.648438 4.109375 -2.179688 4.609375 -1.828125 C 5.109375 -1.472656 5.6875 -1.273438 6.34375 -1.234375 C 6.988281 -1.191406 7.582031 -1.316406 8.125 -1.609375 C 8.675781 -1.898438 9.125 -2.320312 9.46875 -2.875 C 9.820312 -3.4375 10.019531 -4.082031 10.0625 -4.8125 Z M 10.0625 -4.8125 "/></g></g></g><g fill="#fffdf5" fill-opacity="1"><g transform="translate(202.015727, 109.819137)"><g><path d="M 8.140625 -12.390625 C 7.691406 -12.453125 7.335938 -12.363281 7.078125 -12.125 C 6.828125 -11.894531 6.671875 -11.578125 6.609375 -11.171875 L 6.375 -9.75 L 8.40625 -9.421875 C 8.675781 -9.378906 8.882812 -9.257812 9.03125 -9.0625 C 9.175781 -8.875 9.226562 -8.648438 9.1875 -8.390625 C 9.144531 -8.140625 9.023438 -7.941406 8.828125 -7.796875 C 8.628906 -7.660156 8.394531 -7.613281 8.125 -7.65625 L 6.09375 -7.984375 L 4.859375 -0.21875 C 4.816406 0.0390625 4.691406 0.253906 4.484375 0.421875 C 4.273438 0.585938 4.023438 0.644531 3.734375 0.59375 C 3.453125 0.550781 3.238281 0.414062 3.09375 0.1875 C 2.945312 -0.03125 2.894531 -0.269531 2.9375 -0.53125 L 4.171875 -8.296875 L 2.90625 -8.5 C 2.644531 -8.53125 2.4375 -8.644531 2.28125 -8.84375 C 2.132812 -9.039062 2.082031 -9.265625 2.125 -9.515625 C 2.164062 -9.773438 2.285156 -9.972656 2.484375 -10.109375 C 2.691406 -10.242188 2.925781 -10.296875 3.1875 -10.265625 L 4.453125 -10.0625 L 4.6875 -11.484375 C 4.84375 -12.441406 5.269531 -13.15625 5.96875 -13.625 C 6.664062 -14.09375 7.570312 -14.238281 8.6875 -14.0625 C 9.144531 -13.988281 9.535156 -13.835938 9.859375 -13.609375 C 10.191406 -13.378906 10.328125 -13.097656 10.265625 -12.765625 C 10.222656 -12.492188 10.109375 -12.285156 9.921875 -12.140625 C 9.742188 -11.992188 9.546875 -11.9375 9.328125 -11.96875 C 9.273438 -11.976562 9.128906 -12.035156 8.890625 -12.140625 C 8.609375 -12.265625 8.359375 -12.347656 8.140625 -12.390625 Z M 8.140625 -12.390625 "/></g></g></g><g fill="#fffdf5" fill-opacity="1"><g transform="translate(211.46705, 111.39024)"><g><path d="M 9.125 -11.6875 C 8.675781 -11.789062 8.3125 -11.734375 8.03125 -11.515625 C 7.757812 -11.304688 7.578125 -11.003906 7.484375 -10.609375 L 7.140625 -9.21875 L 9.140625 -8.734375 C 9.410156 -8.660156 9.609375 -8.519531 9.734375 -8.3125 C 9.859375 -8.113281 9.890625 -7.882812 9.828125 -7.625 C 9.765625 -7.375 9.628906 -7.1875 9.421875 -7.0625 C 9.222656 -6.9375 8.988281 -6.910156 8.71875 -6.984375 L 6.71875 -7.46875 L 4.859375 0.171875 C 4.796875 0.429688 4.648438 0.632812 4.421875 0.78125 C 4.203125 0.925781 3.953125 0.960938 3.671875 0.890625 C 3.398438 0.828125 3.195312 0.679688 3.0625 0.453125 C 2.9375 0.222656 2.90625 -0.0195312 2.96875 -0.28125 L 4.828125 -7.921875 L 3.578125 -8.234375 C 3.328125 -8.296875 3.128906 -8.425781 2.984375 -8.625 C 2.847656 -8.832031 2.8125 -9.0625 2.875 -9.3125 C 2.9375 -9.570312 3.078125 -9.765625 3.296875 -9.890625 C 3.515625 -10.015625 3.75 -10.046875 4 -9.984375 L 5.25 -9.671875 L 5.59375 -11.0625 C 5.820312 -12 6.304688 -12.671875 7.046875 -13.078125 C 7.785156 -13.492188 8.695312 -13.570312 9.78125 -13.3125 C 10.238281 -13.195312 10.617188 -13.015625 10.921875 -12.765625 C 11.234375 -12.515625 11.347656 -12.222656 11.265625 -11.890625 C 11.203125 -11.628906 11.070312 -11.429688 10.875 -11.296875 C 10.675781 -11.171875 10.472656 -11.132812 10.265625 -11.1875 C 10.210938 -11.195312 10.078125 -11.265625 9.859375 -11.390625 C 9.578125 -11.535156 9.332031 -11.632812 9.125 -11.6875 Z M 9.125 -11.6875 "/></g></g></g><g fill="#fffdf5" fill-opacity="1"><g transform="translate(220.691717, 113.614137)"><g><path d="M 12.265625 -1.90625 C 12.171875 -1.675781 12.003906 -1.507812 11.765625 -1.40625 C 11.535156 -1.3125 11.300781 -1.304688 11.0625 -1.390625 L 4.171875 -3.78125 C 3.929688 -2.789062 4.03125 -1.898438 4.46875 -1.109375 C 4.90625 -0.316406 5.578125 0.234375 6.484375 0.546875 C 7.109375 0.765625 7.644531 0.847656 8.09375 0.796875 C 8.550781 0.753906 8.972656 0.640625 9.359375 0.453125 C 9.597656 0.398438 9.8125 0.410156 10 0.484375 C 10.21875 0.554688 10.375 0.695312 10.46875 0.90625 C 10.570312 1.113281 10.585938 1.320312 10.515625 1.53125 C 10.421875 1.8125 10.207031 2.007812 9.875 2.125 C 9.363281 2.375 8.75 2.519531 8.03125 2.5625 C 7.320312 2.601562 6.640625 2.507812 5.984375 2.28125 C 4.929688 1.914062 4.078125 1.375 3.421875 0.65625 C 2.773438 -0.0625 2.375 -0.890625 2.21875 -1.828125 C 2.0625 -2.773438 2.160156 -3.75 2.515625 -4.75 C 2.890625 -5.84375 3.441406 -6.722656 4.171875 -7.390625 C 4.910156 -8.066406 5.722656 -8.5 6.609375 -8.6875 C 7.503906 -8.875 8.375 -8.820312 9.21875 -8.53125 C 10.050781 -8.238281 10.753906 -7.75 11.328125 -7.0625 C 11.910156 -6.382812 12.289062 -5.585938 12.46875 -4.671875 C 12.644531 -3.765625 12.578125 -2.84375 12.265625 -1.90625 Z M 8.609375 -6.796875 C 7.878906 -7.046875 7.175781 -7.0625 6.5 -6.84375 C 5.832031 -6.625 5.257812 -6.117188 4.78125 -5.328125 L 10.546875 -3.328125 L 10.609375 -3.46875 C 10.785156 -4.175781 10.671875 -4.847656 10.265625 -5.484375 C 9.859375 -6.117188 9.304688 -6.554688 8.609375 -6.796875 Z M 8.609375 -6.796875 "/></g></g></g><g fill="#fffdf5" fill-opacity="1"><g transform="translate(77.931672, 251.9841)"><g><path d="M 8.53125 -2.171875 C 8.851562 -2.171875 9.125 -2.066406 9.34375 -1.859375 C 9.5625 -1.660156 9.671875 -1.398438 9.671875 -1.078125 C 9.671875 -0.765625 9.5625 -0.503906 9.34375 -0.296875 C 9.125 -0.0976562 8.851562 0 8.53125 0 L 2.515625 0 C 2.191406 0 1.921875 -0.101562 1.703125 -0.3125 C 1.492188 -0.53125 1.390625 -0.800781 1.390625 -1.125 L 1.390625 -11.828125 C 1.390625 -12.148438 1.5 -12.414062 1.71875 -12.625 C 1.945312 -12.84375 2.234375 -12.953125 2.578125 -12.953125 C 2.878906 -12.953125 3.140625 -12.84375 3.359375 -12.625 C 3.585938 -12.414062 3.703125 -12.148438 3.703125 -11.828125 L 3.703125 -2.171875 Z M 8.53125 -2.171875 "/></g></g></g><g fill="#fffdf5" fill-opacity="1"><g transform="translate(90.186463, 251.9841)"><g><path d="M 8.71875 -2.125 C 9.039062 -2.125 9.304688 -2.015625 9.515625 -1.796875 C 9.734375 -1.585938 9.84375 -1.34375 9.84375 -1.0625 C 9.84375 -0.75 9.734375 -0.492188 9.515625 -0.296875 C 9.304688 -0.0976562 9.039062 0 8.71875 0 L 2.515625 0 C 2.191406 0 1.921875 -0.101562 1.703125 -0.3125 C 1.492188 -0.53125 1.390625 -0.800781 1.390625 -1.125 L 1.390625 -11.828125 C 1.390625 -12.148438 1.492188 -12.414062 1.703125 -12.625 C 1.921875 -12.84375 2.191406 -12.953125 2.515625 -12.953125 L 8.71875 -12.953125 C 9.039062 -12.953125 9.304688 -12.847656 9.515625 -12.640625 C 9.734375 -12.441406 9.84375 -12.1875 9.84375 -11.875 C 9.84375 -11.5625 9.738281 -11.304688 9.53125 -11.109375 C 9.320312 -10.921875 9.050781 -10.828125 8.71875 -10.828125 L 3.703125 -10.828125 L 3.703125 -7.6875 L 7.890625 -7.6875 C 8.210938 -7.6875 8.476562 -7.582031 8.6875 -7.375 C 8.90625 -7.175781 9.015625 -6.914062 9.015625 -6.59375 C 9.015625 -6.28125 8.910156 -6.023438 8.703125 -5.828125 C 8.492188 -5.640625 8.222656 -5.546875 7.890625 -5.546875 L 3.703125 -5.546875 L 3.703125 -2.125 Z M 8.71875 -2.125 "/></g></g></g><g fill="#fffdf5" fill-opacity="1"><g transform="translate(102.626379, 251.9841)"><g/></g></g><g fill="#fffdf5" fill-opacity="1"><g transform="translate(109.661102, 251.9841)"><g><path d="M 13.390625 0.515625 C 13.648438 0.515625 13.890625 0.625 14.109375 0.84375 C 14.328125 1.070312 14.4375 1.320312 14.4375 1.59375 C 14.4375 1.945312 14.226562 2.285156 13.8125 2.609375 C 13.40625 2.941406 12.898438 3.207031 12.296875 3.40625 C 11.703125 3.601562 11.171875 3.703125 10.703125 3.703125 C 9.910156 3.703125 9.28125 3.625 8.8125 3.46875 C 8.351562 3.3125 7.890625 3.097656 7.421875 2.828125 C 7.117188 2.648438 6.867188 2.519531 6.671875 2.4375 C 6.472656 2.351562 6.238281 2.3125 5.96875 2.3125 C 5.8125 2.3125 5.679688 2.328125 5.578125 2.359375 C 5.484375 2.398438 5.359375 2.457031 5.203125 2.53125 C 5.046875 2.625 4.898438 2.691406 4.765625 2.734375 C 4.628906 2.773438 4.453125 2.796875 4.234375 2.796875 C 3.941406 2.796875 3.6875 2.679688 3.46875 2.453125 C 3.25 2.222656 3.140625 1.96875 3.140625 1.6875 C 3.140625 1.207031 3.359375 0.882812 3.796875 0.71875 L 5.625 0.03125 C 4.664062 -0.175781 3.816406 -0.585938 3.078125 -1.203125 C 2.335938 -1.828125 1.757812 -2.597656 1.34375 -3.515625 C 0.9375 -4.429688 0.734375 -5.421875 0.734375 -6.484375 C 0.734375 -7.703125 1 -8.820312 1.53125 -9.84375 C 2.070312 -10.863281 2.820312 -11.664062 3.78125 -12.25 C 4.738281 -12.84375 5.816406 -13.140625 7.015625 -13.140625 C 8.210938 -13.140625 9.289062 -12.84375 10.25 -12.25 C 11.207031 -11.664062 11.957031 -10.863281 12.5 -9.84375 C 13.039062 -8.820312 13.3125 -7.703125 13.3125 -6.484375 C 13.3125 -5.421875 13.101562 -4.429688 12.6875 -3.515625 C 12.28125 -2.597656 11.703125 -1.828125 10.953125 -1.203125 C 10.203125 -0.585938 9.347656 -0.175781 8.390625 0.03125 L 7.265625 0.46875 C 7.546875 0.5 7.804688 0.5625 8.046875 0.65625 C 8.285156 0.757812 8.5625 0.898438 8.875 1.078125 C 9.25 1.285156 9.578125 1.4375 9.859375 1.53125 C 10.148438 1.632812 10.472656 1.6875 10.828125 1.6875 C 11.140625 1.6875 11.40625 1.640625 11.625 1.546875 C 11.851562 1.453125 12.070312 1.316406 12.28125 1.140625 C 12.351562 1.085938 12.460938 1 12.609375 0.875 C 12.753906 0.757812 12.890625 0.671875 13.015625 0.609375 C 13.140625 0.546875 13.265625 0.515625 13.390625 0.515625 Z M 3.140625 -6.484375 C 3.140625 -5.648438 3.300781 -4.894531 3.625 -4.21875 C 3.957031 -3.539062 4.414062 -3.003906 5 -2.609375 C 5.59375 -2.222656 6.265625 -2.03125 7.015625 -2.03125 C 7.753906 -2.03125 8.421875 -2.226562 9.015625 -2.625 C 9.609375 -3.019531 10.070312 -3.550781 10.40625 -4.21875 C 10.738281 -4.894531 10.90625 -5.648438 10.90625 -6.484375 C 10.90625 -7.304688 10.738281 -8.050781 10.40625 -8.71875 C 10.070312 -9.394531 9.609375 -9.929688 9.015625 -10.328125 C 8.421875 -10.722656 7.753906 -10.921875 7.015625 -10.921875 C 6.265625 -10.921875 5.59375 -10.722656 5 -10.328125 C 4.414062 -9.941406 3.957031 -9.410156 3.625 -8.734375 C 3.300781 -8.054688 3.140625 -7.304688 3.140625 -6.484375 Z M 3.140625 -6.484375 "/></g></g></g><g fill="#fffdf5" fill-opacity="1"><g transform="translate(125.488509, 251.9841)"><g><path d="M 11.546875 -1.8125 C 11.710938 -1.71875 11.84375 -1.585938 11.9375 -1.421875 C 12.03125 -1.265625 12.078125 -1.097656 12.078125 -0.921875 C 12.078125 -0.703125 12 -0.5 11.84375 -0.3125 C 11.664062 -0.09375 11.382812 0.015625 11 0.015625 C 10.695312 0.015625 10.425781 -0.0507812 10.1875 -0.1875 C 9.289062 -0.6875 8.84375 -1.71875 8.84375 -3.28125 C 8.84375 -3.71875 8.695312 -4.066406 8.40625 -4.328125 C 8.125 -4.585938 7.710938 -4.71875 7.171875 -4.71875 L 3.703125 -4.71875 L 3.703125 -1.125 C 3.703125 -0.789062 3.613281 -0.519531 3.4375 -0.3125 C 3.257812 -0.101562 3.019531 0 2.71875 0 C 2.363281 0 2.050781 -0.101562 1.78125 -0.3125 C 1.519531 -0.53125 1.390625 -0.800781 1.390625 -1.125 L 1.390625 -11.828125 C 1.390625 -12.148438 1.492188 -12.414062 1.703125 -12.625 C 1.921875 -12.84375 2.191406 -12.953125 2.515625 -12.953125 L 7.84375 -12.953125 C 8.488281 -12.953125 9.09375 -12.78125 9.65625 -12.4375 C 10.226562 -12.09375 10.679688 -11.617188 11.015625 -11.015625 C 11.359375 -10.410156 11.53125 -9.734375 11.53125 -8.984375 C 11.53125 -8.359375 11.363281 -7.753906 11.03125 -7.171875 C 10.695312 -6.585938 10.265625 -6.125 9.734375 -5.78125 C 10.515625 -5.238281 10.941406 -4.507812 11.015625 -3.59375 C 11.054688 -3.394531 11.078125 -3.203125 11.078125 -3.015625 C 11.117188 -2.628906 11.164062 -2.351562 11.21875 -2.1875 C 11.269531 -2.019531 11.378906 -1.894531 11.546875 -1.8125 Z M 7.765625 -6.625 C 7.984375 -6.625 8.195312 -6.726562 8.40625 -6.9375 C 8.613281 -7.15625 8.785156 -7.4375 8.921875 -7.78125 C 9.054688 -8.132812 9.125 -8.515625 9.125 -8.921875 C 9.125 -9.265625 9.054688 -9.582031 8.921875 -9.875 C 8.785156 -10.164062 8.613281 -10.394531 8.40625 -10.5625 C 8.195312 -10.738281 7.984375 -10.828125 7.765625 -10.828125 L 3.703125 -10.828125 L 3.703125 -6.625 Z M 7.765625 -6.625 "/></g></g></g><g fill="#fffdf5" fill-opacity="1"><g transform="translate(140.05718, 251.9841)"><g><path d="M 10.46875 -12.328125 C 10.84375 -12.128906 11.03125 -11.816406 11.03125 -11.390625 C 11.03125 -11.128906 10.9375 -10.875 10.75 -10.625 C 10.5625 -10.363281 10.3125 -10.234375 10 -10.234375 C 9.789062 -10.234375 9.582031 -10.289062 9.375 -10.40625 C 8.769531 -10.6875 8.113281 -10.828125 7.40625 -10.828125 C 6.539062 -10.828125 5.785156 -10.644531 5.140625 -10.28125 C 4.503906 -9.914062 4.007812 -9.40625 3.65625 -8.75 C 3.3125 -8.09375 3.140625 -7.335938 3.140625 -6.484375 C 3.140625 -5.023438 3.53125 -3.914062 4.3125 -3.15625 C 5.101562 -2.40625 6.132812 -2.03125 7.40625 -2.03125 C 8.15625 -2.03125 8.8125 -2.175781 9.375 -2.46875 C 9.59375 -2.5625 9.789062 -2.609375 9.96875 -2.609375 C 10.28125 -2.609375 10.550781 -2.472656 10.78125 -2.203125 C 10.957031 -1.960938 11.046875 -1.707031 11.046875 -1.4375 C 11.046875 -1.238281 10.992188 -1.0625 10.890625 -0.90625 C 10.796875 -0.75 10.660156 -0.625 10.484375 -0.53125 C 9.515625 -0.0507812 8.488281 0.1875 7.40625 0.1875 C 6.195312 0.1875 5.085938 -0.0664062 4.078125 -0.578125 C 3.066406 -1.097656 2.253906 -1.851562 1.640625 -2.84375 C 1.035156 -3.84375 0.734375 -5.054688 0.734375 -6.484375 C 0.734375 -7.742188 1.019531 -8.875 1.59375 -9.875 C 2.175781 -10.875 2.972656 -11.648438 3.984375 -12.203125 C 4.992188 -12.765625 6.132812 -13.046875 7.40625 -13.046875 C 8.5 -13.046875 9.519531 -12.804688 10.46875 -12.328125 Z M 10.46875 -12.328125 "/></g></g></g><g fill="#fffdf5" fill-opacity="1"><g transform="translate(153.515188, 251.9841)"><g><path d="M 13.3125 -6.484375 C 13.3125 -5.253906 13.039062 -4.128906 12.5 -3.109375 C 11.957031 -2.097656 11.207031 -1.296875 10.25 -0.703125 C 9.289062 -0.109375 8.210938 0.1875 7.015625 0.1875 C 5.816406 0.1875 4.738281 -0.109375 3.78125 -0.703125 C 2.820312 -1.296875 2.070312 -2.097656 1.53125 -3.109375 C 1 -4.128906 0.734375 -5.253906 0.734375 -6.484375 C 0.734375 -7.703125 1 -8.820312 1.53125 -9.84375 C 2.070312 -10.863281 2.820312 -11.664062 3.78125 -12.25 C 4.738281 -12.84375 5.816406 -13.140625 7.015625 -13.140625 C 8.210938 -13.140625 9.289062 -12.84375 10.25 -12.25 C 11.207031 -11.664062 11.957031 -10.863281 12.5 -9.84375 C 13.039062 -8.820312 13.3125 -7.703125 13.3125 -6.484375 Z M 10.90625 -6.484375 C 10.90625 -7.304688 10.738281 -8.050781 10.40625 -8.71875 C 10.070312 -9.394531 9.609375 -9.929688 9.015625 -10.328125 C 8.421875 -10.722656 7.753906 -10.921875 7.015625 -10.921875 C 6.265625 -10.921875 5.59375 -10.722656 5 -10.328125 C 4.414062 -9.941406 3.957031 -9.410156 3.625 -8.734375 C 3.300781 -8.054688 3.140625 -7.304688 3.140625 -6.484375 C 3.140625 -5.648438 3.300781 -4.894531 3.625 -4.21875 C 3.957031 -3.539062 4.414062 -3.003906 5 -2.609375 C 5.59375 -2.222656 6.265625 -2.03125 7.015625 -2.03125 C 7.753906 -2.03125 8.421875 -2.226562 9.015625 -2.625 C 9.609375 -3.019531 10.070312 -3.550781 10.40625 -4.21875 C 10.738281 -4.894531 10.90625 -5.648438 10.90625 -6.484375 Z M 10.90625 -6.484375 "/></g></g></g><g fill="#fffdf5" fill-opacity="1"><g transform="translate(169.416648, 251.9841)"><g><path d="M 6.9375 -12.953125 C 8.101562 -12.953125 9.101562 -12.664062 9.9375 -12.09375 C 10.769531 -11.519531 11.40625 -10.742188 11.84375 -9.765625 C 12.28125 -8.785156 12.5 -7.691406 12.5 -6.484375 C 12.5 -5.273438 12.28125 -4.175781 11.84375 -3.1875 C 11.40625 -2.207031 10.769531 -1.429688 9.9375 -0.859375 C 9.101562 -0.285156 8.101562 0 6.9375 0 L 2.515625 0 C 2.191406 0 1.921875 -0.101562 1.703125 -0.3125 C 1.492188 -0.53125 1.390625 -0.800781 1.390625 -1.125 L 1.390625 -11.828125 C 1.390625 -12.148438 1.492188 -12.414062 1.703125 -12.625 C 1.921875 -12.84375 2.191406 -12.953125 2.515625 -12.953125 Z M 6.765625 -2.125 C 7.867188 -2.125 8.695312 -2.535156 9.25 -3.359375 C 9.8125 -4.179688 10.09375 -5.222656 10.09375 -6.484375 C 10.09375 -7.742188 9.8125 -8.78125 9.25 -9.59375 C 8.6875 -10.414062 7.859375 -10.828125 6.765625 -10.828125 L 3.703125 -10.828125 L 3.703125 -2.125 Z M 6.765625 -2.125 "/></g></g></g><g fill="#fffdf5" fill-opacity="1"><g transform="translate(184.503624, 251.9841)"><g><path d="M 8.71875 -2.125 C 9.039062 -2.125 9.304688 -2.015625 9.515625 -1.796875 C 9.734375 -1.585938 9.84375 -1.34375 9.84375 -1.0625 C 9.84375 -0.75 9.734375 -0.492188 9.515625 -0.296875 C 9.304688 -0.0976562 9.039062 0 8.71875 0 L 2.515625 0 C 2.191406 0 1.921875 -0.101562 1.703125 -0.3125 C 1.492188 -0.53125 1.390625 -0.800781 1.390625 -1.125 L 1.390625 -11.828125 C 1.390625 -12.148438 1.492188 -12.414062 1.703125 -12.625 C 1.921875 -12.84375 2.191406 -12.953125 2.515625 -12.953125 L 8.71875 -12.953125 C 9.039062 -12.953125 9.304688 -12.847656 9.515625 -12.640625 C 9.734375 -12.441406 9.84375 -12.1875 9.84375 -11.875 C 9.84375 -11.5625 9.738281 -11.304688 9.53125 -11.109375 C 9.320312 -10.921875 9.050781 -10.828125 8.71875 -10.828125 L 3.703125 -10.828125 L 3.703125 -7.6875 L 7.890625 -7.6875 C 8.210938 -7.6875 8.476562 -7.582031 8.6875 -7.375 C 8.90625 -7.175781 9.015625 -6.914062 9.015625 -6.59375 C 9.015625 -6.28125 8.910156 -6.023438 8.703125 -5.828125 C 8.492188 -5.640625 8.222656 -5.546875 7.890625 -5.546875 L 3.703125 -5.546875 L 3.703125 -2.125 Z M 8.71875 -2.125 "/></g></g></g><g fill="#fffdf5" fill-opacity="1"><g transform="translate(196.94354, 251.9841)"><g/></g></g><g fill="#fffdf5" fill-opacity="1"><g transform="translate(203.978263, 251.9841)"><g><path d="M 13.390625 0.515625 C 13.648438 0.515625 13.890625 0.625 14.109375 0.84375 C 14.328125 1.070312 14.4375 1.320312 14.4375 1.59375 C 14.4375 1.945312 14.226562 2.285156 13.8125 2.609375 C 13.40625 2.941406 12.898438 3.207031 12.296875 3.40625 C 11.703125 3.601562 11.171875 3.703125 10.703125 3.703125 C 9.910156 3.703125 9.28125 3.625 8.8125 3.46875 C 8.351562 3.3125 7.890625 3.097656 7.421875 2.828125 C 7.117188 2.648438 6.867188 2.519531 6.671875 2.4375 C 6.472656 2.351562 6.238281 2.3125 5.96875 2.3125 C 5.8125 2.3125 5.679688 2.328125 5.578125 2.359375 C 5.484375 2.398438 5.359375 2.457031 5.203125 2.53125 C 5.046875 2.625 4.898438 2.691406 4.765625 2.734375 C 4.628906 2.773438 4.453125 2.796875 4.234375 2.796875 C 3.941406 2.796875 3.6875 2.679688 3.46875 2.453125 C 3.25 2.222656 3.140625 1.96875 3.140625 1.6875 C 3.140625 1.207031 3.359375 0.882812 3.796875 0.71875 L 5.625 0.03125 C 4.664062 -0.175781 3.816406 -0.585938 3.078125 -1.203125 C 2.335938 -1.828125 1.757812 -2.597656 1.34375 -3.515625 C 0.9375 -4.429688 0.734375 -5.421875 0.734375 -6.484375 C 0.734375 -7.703125 1 -8.820312 1.53125 -9.84375 C 2.070312 -10.863281 2.820312 -11.664062 3.78125 -12.25 C 4.738281 -12.84375 5.816406 -13.140625 7.015625 -13.140625 C 8.210938 -13.140625 9.289062 -12.84375 10.25 -12.25 C 11.207031 -11.664062 11.957031 -10.863281 12.5 -9.84375 C 13.039062 -8.820312 13.3125 -7.703125 13.3125 -6.484375 C 13.3125 -5.421875 13.101562 -4.429688 12.6875 -3.515625 C 12.28125 -2.597656 11.703125 -1.828125 10.953125 -1.203125 C 10.203125 -0.585938 9.347656 -0.175781 8.390625 0.03125 L 7.265625 0.46875 C 7.546875 0.5 7.804688 0.5625 8.046875 0.65625 C 8.285156 0.757812 8.5625 0.898438 8.875 1.078125 C 9.25 1.285156 9.578125 1.4375 9.859375 1.53125 C 10.148438 1.632812 10.472656 1.6875 10.828125 1.6875 C 11.140625 1.6875 11.40625 1.640625 11.625 1.546875 C 11.851562 1.453125 12.070312 1.316406 12.28125 1.140625 C 12.351562 1.085938 12.460938 1 12.609375 0.875 C 12.753906 0.757812 12.890625 0.671875 13.015625 0.609375 C 13.140625 0.546875 13.265625 0.515625 13.390625 0.515625 Z M 3.140625 -6.484375 C 3.140625 -5.648438 3.300781 -4.894531 3.625 -4.21875 C 3.957031 -3.539062 4.414062 -3.003906 5 -2.609375 C 5.59375 -2.222656 6.265625 -2.03125 7.015625 -2.03125 C 7.753906 -2.03125 8.421875 -2.226562 9.015625 -2.625 C 9.609375 -3.019531 10.070312 -3.550781 10.40625 -4.21875 C 10.738281 -4.894531 10.90625 -5.648438 10.90625 -6.484375 C 10.90625 -7.304688 10.738281 -8.050781 10.40625 -8.71875 C 10.070312 -9.394531 9.609375 -9.929688 9.015625 -10.328125 C 8.421875 -10.722656 7.753906 -10.921875 7.015625 -10.921875 C 6.265625 -10.921875 5.59375 -10.722656 5 -10.328125 C 4.414062 -9.941406 3.957031 -9.410156 3.625 -8.734375 C 3.300781 -8.054688 3.140625 -7.304688 3.140625 -6.484375 Z M 3.140625 -6.484375 "/></g></g></g><g fill="#fffdf5" fill-opacity="1"><g transform="translate(219.805662, 251.9841)"><g><path d="M 10.59375 -12.984375 C 10.914062 -12.984375 11.175781 -12.875 11.375 -12.65625 C 11.570312 -12.445312 11.671875 -12.175781 11.671875 -11.84375 L 11.671875 -5.140625 C 11.671875 -4.117188 11.453125 -3.210938 11.015625 -2.421875 C 10.585938 -1.628906 9.984375 -1.007812 9.203125 -0.5625 C 8.421875 -0.125 7.53125 0.09375 6.53125 0.09375 C 5.53125 0.09375 4.640625 -0.125 3.859375 -0.5625 C 3.078125 -1.007812 2.46875 -1.628906 2.03125 -2.421875 C 1.601562 -3.210938 1.390625 -4.117188 1.390625 -5.140625 L 1.390625 -11.84375 C 1.390625 -12.164062 1.5 -12.4375 1.71875 -12.65625 C 1.945312 -12.875 2.234375 -12.984375 2.578125 -12.984375 C 2.867188 -12.984375 3.125 -12.875 3.34375 -12.65625 C 3.570312 -12.4375 3.6875 -12.164062 3.6875 -11.84375 L 3.6875 -5.140625 C 3.6875 -4.554688 3.816406 -4.03125 4.078125 -3.5625 C 4.335938 -3.101562 4.6875 -2.75 5.125 -2.5 C 5.5625 -2.25 6.03125 -2.125 6.53125 -2.125 C 7.0625 -2.125 7.554688 -2.25 8.015625 -2.5 C 8.484375 -2.75 8.851562 -3.101562 9.125 -3.5625 C 9.40625 -4.03125 9.546875 -4.554688 9.546875 -5.140625 L 9.546875 -11.84375 C 9.546875 -12.175781 9.640625 -12.445312 9.828125 -12.65625 C 10.015625 -12.875 10.269531 -12.984375 10.59375 -12.984375 Z M 10.59375 -12.984375 "/></g></g></g><g fill="#fffdf5" fill-opacity="1"><g transform="translate(234.707522, 251.9841)"><g><path d="M 3.703125 -1.125 C 3.703125 -0.800781 3.582031 -0.53125 3.34375 -0.3125 C 3.113281 -0.101562 2.84375 0 2.53125 0 C 2.195312 0 1.921875 -0.101562 1.703125 -0.3125 C 1.492188 -0.53125 1.390625 -0.800781 1.390625 -1.125 L 1.390625 -11.828125 C 1.390625 -12.148438 1.5 -12.414062 1.71875 -12.625 C 1.945312 -12.84375 2.234375 -12.953125 2.578125 -12.953125 C 2.878906 -12.953125 3.140625 -12.84375 3.359375 -12.625 C 3.585938 -12.414062 3.703125 -12.148438 3.703125 -11.828125 Z M 3.703125 -1.125 "/></g></g></g><g fill="#fffdf5" fill-opacity="1"><g transform="translate(241.649683, 251.9841)"><g/></g></g><g fill="#fffdf5" fill-opacity="1"><g transform="translate(248.684398, 251.9841)"><g><path d="M 3.703125 -10.828125 L 3.703125 -7.578125 L 7.703125 -7.578125 C 8.023438 -7.578125 8.289062 -7.472656 8.5 -7.265625 C 8.71875 -7.066406 8.828125 -6.804688 8.828125 -6.484375 C 8.828125 -6.210938 8.71875 -5.96875 8.5 -5.75 C 8.289062 -5.539062 8.023438 -5.4375 7.703125 -5.4375 L 3.703125 -5.4375 L 3.703125 -1.125 C 3.703125 -0.800781 3.585938 -0.53125 3.359375 -0.3125 C 3.128906 -0.101562 2.863281 0 2.5625 0 C 2.207031 0 1.921875 -0.101562 1.703125 -0.3125 C 1.492188 -0.519531 1.390625 -0.789062 1.390625 -1.125 L 1.390625 -11.828125 C 1.390625 -12.148438 1.492188 -12.414062 1.703125 -12.625 C 1.921875 -12.84375 2.191406 -12.953125 2.515625 -12.953125 L 8.53125 -12.953125 C 8.851562 -12.953125 9.125 -12.847656 9.34375 -12.640625 C 9.5625 -12.441406 9.671875 -12.1875 9.671875 -11.875 C 9.671875 -11.601562 9.5625 -11.359375 9.34375 -11.140625 C 9.125 -10.929688 8.851562 -10.828125 8.53125 -10.828125 Z M 3.703125 -10.828125 "/></g></g></g><g fill="#fffdf5" fill-opacity="1"><g transform="translate(260.939197, 251.9841)"><g><path d="M 11.546875 -1.4375 C 11.609375 -1.28125 11.640625 -1.132812 11.640625 -1 C 11.640625 -0.675781 11.535156 -0.410156 11.328125 -0.203125 C 11.117188 -0.00390625 10.878906 0.09375 10.609375 0.09375 C 10.390625 0.09375 10.1875 0.0234375 10 -0.109375 C 9.820312 -0.242188 9.6875 -0.429688 9.59375 -0.671875 L 8.625 -2.90625 L 3.109375 -2.90625 L 2.140625 -0.640625 C 2.054688 -0.410156 1.925781 -0.226562 1.75 -0.09375 C 1.570312 0.03125 1.378906 0.09375 1.171875 0.09375 C 0.847656 0.09375 0.601562 0.0078125 0.4375 -0.15625 C 0.269531 -0.332031 0.1875 -0.570312 0.1875 -0.875 C 0.1875 -0.976562 0.203125 -1.09375 0.234375 -1.21875 L 4.84375 -12.296875 C 4.945312 -12.546875 5.097656 -12.738281 5.296875 -12.875 C 5.492188 -13.007812 5.71875 -13.0625 5.96875 -13.03125 C 6.1875 -13.03125 6.390625 -12.960938 6.578125 -12.828125 C 6.773438 -12.703125 6.914062 -12.523438 7 -12.296875 Z M 4.015625 -5.03125 L 7.71875 -5.03125 L 5.84375 -9.375 Z M 4.015625 -5.03125 "/></g></g></g><g fill="#fffdf5" fill-opacity="1"><g transform="translate(274.61934, 251.9841)"><g><path d="M 3.703125 -1.125 C 3.703125 -0.800781 3.582031 -0.53125 3.34375 -0.3125 C 3.113281 -0.101562 2.84375 0 2.53125 0 C 2.195312 0 1.921875 -0.101562 1.703125 -0.3125 C 1.492188 -0.53125 1.390625 -0.800781 1.390625 -1.125 L 1.390625 -11.828125 C 1.390625 -12.148438 1.5 -12.414062 1.71875 -12.625 C 1.945312 -12.84375 2.234375 -12.953125 2.578125 -12.953125 C 2.878906 -12.953125 3.140625 -12.84375 3.359375 -12.625 C 3.585938 -12.414062 3.703125 -12.148438 3.703125 -11.828125 Z M 3.703125 -1.125 "/></g></g></g><g fill="#fffdf5" fill-opacity="1"><g transform="translate(281.5615, 251.9841)"><g><path d="M 9.90625 -12.953125 C 10.238281 -12.953125 10.507812 -12.851562 10.71875 -12.65625 C 10.925781 -12.46875 11.03125 -12.210938 11.03125 -11.890625 C 11.03125 -11.566406 10.925781 -11.304688 10.71875 -11.109375 C 10.507812 -10.921875 10.238281 -10.828125 9.90625 -10.828125 L 7 -10.828125 L 7 -1.125 C 7 -0.800781 6.878906 -0.53125 6.640625 -0.3125 C 6.410156 -0.101562 6.125 0 5.78125 0 C 5.4375 0 5.148438 -0.101562 4.921875 -0.3125 C 4.703125 -0.53125 4.59375 -0.800781 4.59375 -1.125 L 4.59375 -10.828125 L 1.6875 -10.828125 C 1.351562 -10.828125 1.082031 -10.925781 0.875 -11.125 C 0.664062 -11.320312 0.5625 -11.582031 0.5625 -11.90625 C 0.5625 -12.21875 0.664062 -12.46875 0.875 -12.65625 C 1.09375 -12.851562 1.363281 -12.953125 1.6875 -12.953125 Z M 9.90625 -12.953125 "/></g></g></g><g fill="#fffdf5" fill-opacity="1"><g transform="translate(104.788534, 277.622472)"><g><path d="M 12.625 -12.984375 C 12.9375 -12.984375 13.207031 -12.875 13.4375 -12.65625 C 13.664062 -12.4375 13.78125 -12.164062 13.78125 -11.84375 L 13.78125 -1.125 C 13.78125 -0.800781 13.671875 -0.53125 13.453125 -0.3125 C 13.242188 -0.101562 12.96875 0 12.625 0 C 12.28125 0 12 -0.101562 11.78125 -0.3125 C 11.570312 -0.519531 11.46875 -0.789062 11.46875 -1.125 L 11.46875 -8.59375 L 8.40625 -3.921875 C 8.28125 -3.773438 8.132812 -3.65625 7.96875 -3.5625 C 7.8125 -3.46875 7.648438 -3.425781 7.484375 -3.4375 C 7.316406 -3.425781 7.15625 -3.46875 7 -3.5625 C 6.84375 -3.65625 6.703125 -3.773438 6.578125 -3.921875 L 3.515625 -8.765625 L 3.515625 -1.125 C 3.515625 -0.789062 3.414062 -0.519531 3.21875 -0.3125 C 3.019531 -0.101562 2.757812 0 2.4375 0 C 2.132812 0 1.882812 -0.101562 1.6875 -0.3125 C 1.488281 -0.53125 1.390625 -0.800781 1.390625 -1.125 L 1.390625 -11.84375 C 1.390625 -12.15625 1.503906 -12.421875 1.734375 -12.640625 C 1.960938 -12.867188 2.238281 -12.984375 2.5625 -12.984375 C 2.738281 -12.984375 2.921875 -12.9375 3.109375 -12.84375 C 3.296875 -12.75 3.4375 -12.628906 3.53125 -12.484375 L 7.578125 -6.28125 L 11.71875 -12.484375 C 11.820312 -12.628906 11.957031 -12.75 12.125 -12.84375 C 12.289062 -12.9375 12.457031 -12.984375 12.625 -12.984375 Z M 12.625 -12.984375 "/></g></g></g><g fill="#fffdf5" fill-opacity="1"><g transform="translate(121.800641, 277.622472)"><g><path d="M 8.71875 -2.125 C 9.039062 -2.125 9.304688 -2.015625 9.515625 -1.796875 C 9.734375 -1.585938 9.84375 -1.34375 9.84375 -1.0625 C 9.84375 -0.75 9.734375 -0.492188 9.515625 -0.296875 C 9.304688 -0.0976562 9.039062 0 8.71875 0 L 2.515625 0 C 2.191406 0 1.921875 -0.101562 1.703125 -0.3125 C 1.492188 -0.53125 1.390625 -0.800781 1.390625 -1.125 L 1.390625 -11.828125 C 1.390625 -12.148438 1.492188 -12.414062 1.703125 -12.625 C 1.921875 -12.84375 2.191406 -12.953125 2.515625 -12.953125 L 8.71875 -12.953125 C 9.039062 -12.953125 9.304688 -12.847656 9.515625 -12.640625 C 9.734375 -12.441406 9.84375 -12.1875 9.84375 -11.875 C 9.84375 -11.5625 9.738281 -11.304688 9.53125 -11.109375 C 9.320312 -10.921875 9.050781 -10.828125 8.71875 -10.828125 L 3.703125 -10.828125 L 3.703125 -7.6875 L 7.890625 -7.6875 C 8.210938 -7.6875 8.476562 -7.582031 8.6875 -7.375 C 8.90625 -7.175781 9.015625 -6.914062 9.015625 -6.59375 C 9.015625 -6.28125 8.910156 -6.023438 8.703125 -5.828125 C 8.492188 -5.640625 8.222656 -5.546875 7.890625 -5.546875 L 3.703125 -5.546875 L 3.703125 -2.125 Z M 8.09375 -14.71875 C 8.195312 -14.59375 8.265625 -14.492188 8.296875 -14.421875 C 8.335938 -14.347656 8.359375 -14.257812 8.359375 -14.15625 C 8.359375 -14.039062 8.300781 -13.929688 8.1875 -13.828125 C 8.082031 -13.734375 7.953125 -13.6875 7.796875 -13.6875 C 7.679688 -13.6875 7.554688 -13.71875 7.421875 -13.78125 C 7.285156 -13.84375 7.09375 -13.953125 6.84375 -14.109375 L 5.640625 -14.8125 L 4.4375 -14.109375 C 4.238281 -13.992188 4.0625 -13.894531 3.90625 -13.8125 C 3.75 -13.726562 3.613281 -13.6875 3.5 -13.6875 C 3.332031 -13.6875 3.191406 -13.734375 3.078125 -13.828125 C 2.972656 -13.929688 2.921875 -14.039062 2.921875 -14.15625 C 2.921875 -14.257812 2.9375 -14.347656 2.96875 -14.421875 C 3.007812 -14.492188 3.085938 -14.59375 3.203125 -14.71875 L 4.375 -16.046875 C 4.53125 -16.234375 4.691406 -16.367188 4.859375 -16.453125 C 5.035156 -16.535156 5.25 -16.578125 5.5 -16.578125 L 5.796875 -16.578125 C 6.023438 -16.578125 6.226562 -16.535156 6.40625 -16.453125 C 6.59375 -16.367188 6.765625 -16.234375 6.921875 -16.046875 Z M 8.09375 -14.71875 "/></g></g></g><g fill="#fffdf5" fill-opacity="1"><g transform="translate(134.240556, 277.622472)"><g><path d="M 12.625 -12.984375 C 12.9375 -12.984375 13.207031 -12.875 13.4375 -12.65625 C 13.664062 -12.4375 13.78125 -12.164062 13.78125 -11.84375 L 13.78125 -1.125 C 13.78125 -0.800781 13.671875 -0.53125 13.453125 -0.3125 C 13.242188 -0.101562 12.96875 0 12.625 0 C 12.28125 0 12 -0.101562 11.78125 -0.3125 C 11.570312 -0.519531 11.46875 -0.789062 11.46875 -1.125 L 11.46875 -8.59375 L 8.40625 -3.921875 C 8.28125 -3.773438 8.132812 -3.65625 7.96875 -3.5625 C 7.8125 -3.46875 7.648438 -3.425781 7.484375 -3.4375 C 7.316406 -3.425781 7.15625 -3.46875 7 -3.5625 C 6.84375 -3.65625 6.703125 -3.773438 6.578125 -3.921875 L 3.515625 -8.765625 L 3.515625 -1.125 C 3.515625 -0.789062 3.414062 -0.519531 3.21875 -0.3125 C 3.019531 -0.101562 2.757812 0 2.4375 0 C 2.132812 0 1.882812 -0.101562 1.6875 -0.3125 C 1.488281 -0.53125 1.390625 -0.800781 1.390625 -1.125 L 1.390625 -11.84375 C 1.390625 -12.15625 1.503906 -12.421875 1.734375 -12.640625 C 1.960938 -12.867188 2.238281 -12.984375 2.5625 -12.984375 C 2.738281 -12.984375 2.921875 -12.9375 3.109375 -12.84375 C 3.296875 -12.75 3.4375 -12.628906 3.53125 -12.484375 L 7.578125 -6.28125 L 11.71875 -12.484375 C 11.820312 -12.628906 11.957031 -12.75 12.125 -12.84375 C 12.289062 -12.9375 12.457031 -12.984375 12.625 -12.984375 Z M 12.625 -12.984375 "/></g></g></g><g fill="#fffdf5" fill-opacity="1"><g transform="translate(151.252663, 277.622472)"><g><path d="M 8.71875 -2.125 C 9.039062 -2.125 9.304688 -2.015625 9.515625 -1.796875 C 9.734375 -1.585938 9.84375 -1.34375 9.84375 -1.0625 C 9.84375 -0.75 9.734375 -0.492188 9.515625 -0.296875 C 9.304688 -0.0976562 9.039062 0 8.71875 0 L 2.515625 0 C 2.191406 0 1.921875 -0.101562 1.703125 -0.3125 C 1.492188 -0.53125 1.390625 -0.800781 1.390625 -1.125 L 1.390625 -11.828125 C 1.390625 -12.148438 1.492188 -12.414062 1.703125 -12.625 C 1.921875 -12.84375 2.191406 -12.953125 2.515625 -12.953125 L 8.71875 -12.953125 C 9.039062 -12.953125 9.304688 -12.847656 9.515625 -12.640625 C 9.734375 -12.441406 9.84375 -12.1875 9.84375 -11.875 C 9.84375 -11.5625 9.738281 -11.304688 9.53125 -11.109375 C 9.320312 -10.921875 9.050781 -10.828125 8.71875 -10.828125 L 3.703125 -10.828125 L 3.703125 -7.6875 L 7.890625 -7.6875 C 8.210938 -7.6875 8.476562 -7.582031 8.6875 -7.375 C 8.90625 -7.175781 9.015625 -6.914062 9.015625 -6.59375 C 9.015625 -6.28125 8.910156 -6.023438 8.703125 -5.828125 C 8.492188 -5.640625 8.222656 -5.546875 7.890625 -5.546875 L 3.703125 -5.546875 L 3.703125 -2.125 Z M 8.71875 -2.125 "/></g></g></g><g fill="#fffdf5" fill-opacity="1"><g transform="translate(163.692578, 277.622472)"><g/></g></g><g fill="#fffdf5" fill-opacity="1"><g transform="translate(170.727301, 277.622472)"><g><path d="M 8.53125 -2.171875 C 8.851562 -2.171875 9.125 -2.066406 9.34375 -1.859375 C 9.5625 -1.660156 9.671875 -1.398438 9.671875 -1.078125 C 9.671875 -0.765625 9.5625 -0.503906 9.34375 -0.296875 C 9.125 -0.0976562 8.851562 0 8.53125 0 L 2.515625 0 C 2.191406 0 1.921875 -0.101562 1.703125 -0.3125 C 1.492188 -0.53125 1.390625 -0.800781 1.390625 -1.125 L 1.390625 -11.828125 C 1.390625 -12.148438 1.5 -12.414062 1.71875 -12.625 C 1.945312 -12.84375 2.234375 -12.953125 2.578125 -12.953125 C 2.878906 -12.953125 3.140625 -12.84375 3.359375 -12.625 C 3.585938 -12.414062 3.703125 -12.148438 3.703125 -11.828125 L 3.703125 -2.171875 Z M 8.53125 -2.171875 "/></g></g></g><g fill="#fffdf5" fill-opacity="1"><g transform="translate(182.982093, 277.622472)"><g><path d="M 8.71875 -2.125 C 9.039062 -2.125 9.304688 -2.015625 9.515625 -1.796875 C 9.734375 -1.585938 9.84375 -1.34375 9.84375 -1.0625 C 9.84375 -0.75 9.734375 -0.492188 9.515625 -0.296875 C 9.304688 -0.0976562 9.039062 0 8.71875 0 L 2.515625 0 C 2.191406 0 1.921875 -0.101562 1.703125 -0.3125 C 1.492188 -0.53125 1.390625 -0.800781 1.390625 -1.125 L 1.390625 -11.828125 C 1.390625 -12.148438 1.492188 -12.414062 1.703125 -12.625 C 1.921875 -12.84375 2.191406 -12.953125 2.515625 -12.953125 L 8.71875 -12.953125 C 9.039062 -12.953125 9.304688 -12.847656 9.515625 -12.640625 C 9.734375 -12.441406 9.84375 -12.1875 9.84375 -11.875 C 9.84375 -11.5625 9.738281 -11.304688 9.53125 -11.109375 C 9.320312 -10.921875 9.050781 -10.828125 8.71875 -10.828125 L 3.703125 -10.828125 L 3.703125 -7.6875 L 7.890625 -7.6875 C 8.210938 -7.6875 8.476562 -7.582031 8.6875 -7.375 C 8.90625 -7.175781 9.015625 -6.914062 9.015625 -6.59375 C 9.015625 -6.28125 8.910156 -6.023438 8.703125 -5.828125 C 8.492188 -5.640625 8.222656 -5.546875 7.890625 -5.546875 L 3.703125 -5.546875 L 3.703125 -2.125 Z M 8.71875 -2.125 "/></g></g></g><g fill="#fffdf5" fill-opacity="1"><g transform="translate(195.422008, 277.622472)"><g/></g></g><g fill="#fffdf5" fill-opacity="1"><g transform="translate(202.456731, 277.622472)"><g><path d="M 10.46875 -12.328125 C 10.84375 -12.128906 11.03125 -11.816406 11.03125 -11.390625 C 11.03125 -11.128906 10.9375 -10.875 10.75 -10.625 C 10.5625 -10.363281 10.3125 -10.234375 10 -10.234375 C 9.789062 -10.234375 9.582031 -10.289062 9.375 -10.40625 C 8.769531 -10.6875 8.113281 -10.828125 7.40625 -10.828125 C 6.539062 -10.828125 5.785156 -10.644531 5.140625 -10.28125 C 4.503906 -9.914062 4.007812 -9.40625 3.65625 -8.75 C 3.3125 -8.09375 3.140625 -7.335938 3.140625 -6.484375 C 3.140625 -5.023438 3.53125 -3.914062 4.3125 -3.15625 C 5.101562 -2.40625 6.132812 -2.03125 7.40625 -2.03125 C 8.15625 -2.03125 8.8125 -2.175781 9.375 -2.46875 C 9.59375 -2.5625 9.789062 -2.609375 9.96875 -2.609375 C 10.28125 -2.609375 10.550781 -2.472656 10.78125 -2.203125 C 10.957031 -1.960938 11.046875 -1.707031 11.046875 -1.4375 C 11.046875 -1.238281 10.992188 -1.0625 10.890625 -0.90625 C 10.796875 -0.75 10.660156 -0.625 10.484375 -0.53125 C 9.515625 -0.0507812 8.488281 0.1875 7.40625 0.1875 C 6.195312 0.1875 5.085938 -0.0664062 4.078125 -0.578125 C 3.066406 -1.097656 2.253906 -1.851562 1.640625 -2.84375 C 1.035156 -3.84375 0.734375 -5.054688 0.734375 -6.484375 C 0.734375 -7.742188 1.019531 -8.875 1.59375 -9.875 C 2.175781 -10.875 2.972656 -11.648438 3.984375 -12.203125 C 4.992188 -12.765625 6.132812 -13.046875 7.40625 -13.046875 C 8.5 -13.046875 9.519531 -12.804688 10.46875 -12.328125 Z M 10.46875 -12.328125 "/></g></g></g><g fill="#fffdf5" fill-opacity="1"><g transform="translate(215.914739, 277.622472)"><g><path d="M 11.546875 -1.4375 C 11.609375 -1.28125 11.640625 -1.132812 11.640625 -1 C 11.640625 -0.675781 11.535156 -0.410156 11.328125 -0.203125 C 11.117188 -0.00390625 10.878906 0.09375 10.609375 0.09375 C 10.390625 0.09375 10.1875 0.0234375 10 -0.109375 C 9.820312 -0.242188 9.6875 -0.429688 9.59375 -0.671875 L 8.625 -2.90625 L 3.109375 -2.90625 L 2.140625 -0.640625 C 2.054688 -0.410156 1.925781 -0.226562 1.75 -0.09375 C 1.570312 0.03125 1.378906 0.09375 1.171875 0.09375 C 0.847656 0.09375 0.601562 0.0078125 0.4375 -0.15625 C 0.269531 -0.332031 0.1875 -0.570312 0.1875 -0.875 C 0.1875 -0.976562 0.203125 -1.09375 0.234375 -1.21875 L 4.84375 -12.296875 C 4.945312 -12.546875 5.097656 -12.738281 5.296875 -12.875 C 5.492188 -13.007812 5.71875 -13.0625 5.96875 -13.03125 C 6.1875 -13.03125 6.390625 -12.960938 6.578125 -12.828125 C 6.773438 -12.703125 6.914062 -12.523438 7 -12.296875 Z M 4.015625 -5.03125 L 7.71875 -5.03125 L 5.84375 -9.375 Z M 4.015625 -5.03125 "/></g></g></g><g fill="#fffdf5" fill-opacity="1"><g transform="translate(229.594873, 277.622472)"><g><path d="M 3.703125 -10.828125 L 3.703125 -7.578125 L 7.703125 -7.578125 C 8.023438 -7.578125 8.289062 -7.472656 8.5 -7.265625 C 8.71875 -7.066406 8.828125 -6.804688 8.828125 -6.484375 C 8.828125 -6.210938 8.71875 -5.96875 8.5 -5.75 C 8.289062 -5.539062 8.023438 -5.4375 7.703125 -5.4375 L 3.703125 -5.4375 L 3.703125 -1.125 C 3.703125 -0.800781 3.585938 -0.53125 3.359375 -0.3125 C 3.128906 -0.101562 2.863281 0 2.5625 0 C 2.207031 0 1.921875 -0.101562 1.703125 -0.3125 C 1.492188 -0.519531 1.390625 -0.789062 1.390625 -1.125 L 1.390625 -11.828125 C 1.390625 -12.148438 1.492188 -12.414062 1.703125 -12.625 C 1.921875 -12.84375 2.191406 -12.953125 2.515625 -12.953125 L 8.53125 -12.953125 C 8.851562 -12.953125 9.125 -12.847656 9.34375 -12.640625 C 9.5625 -12.441406 9.671875 -12.1875 9.671875 -11.875 C 9.671875 -11.601562 9.5625 -11.359375 9.34375 -11.140625 C 9.125 -10.929688 8.851562 -10.828125 8.53125 -10.828125 Z M 3.703125 -10.828125 "/></g></g></g><g fill="#fffdf5" fill-opacity="1"><g transform="translate(241.849657, 277.622472)"><g><path d="M 8.71875 -2.125 C 9.039062 -2.125 9.304688 -2.015625 9.515625 -1.796875 C 9.734375 -1.585938 9.84375 -1.34375 9.84375 -1.0625 C 9.84375 -0.75 9.734375 -0.492188 9.515625 -0.296875 C 9.304688 -0.0976562 9.039062 0 8.71875 0 L 2.515625 0 C 2.191406 0 1.921875 -0.101562 1.703125 -0.3125 C 1.492188 -0.53125 1.390625 -0.800781 1.390625 -1.125 L 1.390625 -11.828125 C 1.390625 -12.148438 1.492188 -12.414062 1.703125 -12.625 C 1.921875 -12.84375 2.191406 -12.953125 2.515625 -12.953125 L 8.71875 -12.953125 C 9.039062 -12.953125 9.304688 -12.847656 9.515625 -12.640625 C 9.734375 -12.441406 9.84375 -12.1875 9.84375 -11.875 C 9.84375 -11.5625 9.738281 -11.304688 9.53125 -11.109375 C 9.320312 -10.921875 9.050781 -10.828125 8.71875 -10.828125 L 3.703125 -10.828125 L 3.703125 -7.6875 L 7.890625 -7.6875 C 8.210938 -7.6875 8.476562 -7.582031 8.6875 -7.375 C 8.90625 -7.175781 9.015625 -6.914062 9.015625 -6.59375 C 9.015625 -6.28125 8.910156 -6.023438 8.703125 -5.828125 C 8.492188 -5.640625 8.222656 -5.546875 7.890625 -5.546875 L 3.703125 -5.546875 L 3.703125 -2.125 Z M 5.6875 -13.671875 C 5.445312 -13.671875 5.253906 -13.726562 5.109375 -13.84375 C 4.972656 -13.96875 4.90625 -14.128906 4.90625 -14.328125 C 4.90625 -14.503906 4.988281 -14.671875 5.15625 -14.828125 L 6.75 -16.234375 C 7.070312 -16.503906 7.375 -16.640625 7.65625 -16.640625 C 7.894531 -16.640625 8.117188 -16.550781 8.328125 -16.375 C 8.535156 -16.207031 8.640625 -15.992188 8.640625 -15.734375 C 8.640625 -15.546875 8.582031 -15.363281 8.46875 -15.1875 C 8.351562 -15.007812 8.179688 -14.863281 7.953125 -14.75 L 6.109375 -13.78125 C 5.984375 -13.707031 5.84375 -13.671875 5.6875 -13.671875 Z M 5.6875 -13.671875 "/></g></g></g><g fill="#fffdf5" fill-opacity="1"><g transform="translate(254.289564, 277.622472)"><g/></g></g><g fill="#fffdf5" fill-opacity="1"><g transform="translate(261.324279, 277.622472)"><g><path d="M 2.484375 -4.09375 C 2.054688 -4.09375 1.828125 -4.328125 1.796875 -4.796875 L 1.265625 -11.609375 C 1.234375 -11.992188 1.332031 -12.3125 1.5625 -12.5625 C 1.789062 -12.820312 2.09375 -12.953125 2.46875 -12.953125 C 2.832031 -12.953125 3.128906 -12.820312 3.359375 -12.5625 C 3.597656 -12.3125 3.703125 -11.992188 3.671875 -11.609375 L 3.140625 -4.796875 C 3.109375 -4.328125 2.890625 -4.09375 2.484375 -4.09375 Z M 2.34375 0 C 1.988281 0 1.710938 -0.09375 1.515625 -0.28125 C 1.328125 -0.476562 1.234375 -0.753906 1.234375 -1.109375 L 1.234375 -1.421875 C 1.234375 -1.785156 1.328125 -2.0625 1.515625 -2.25 C 1.710938 -2.4375 1.988281 -2.53125 2.34375 -2.53125 L 2.59375 -2.53125 C 2.945312 -2.53125 3.21875 -2.4375 3.40625 -2.25 C 3.601562 -2.0625 3.703125 -1.785156 3.703125 -1.421875 L 3.703125 -1.109375 C 3.703125 -0.753906 3.601562 -0.476562 3.40625 -0.28125 C 3.21875 -0.09375 2.945312 0 2.59375 0 Z M 2.34375 0 "/></g></g></g><g clip-path="url(#4f611d9331)"><path fill="#ffffff" d="M 198.613281 144.847656 L 260.042969 144.847656 L 260.042969 206.273438 L 198.613281 206.273438 Z M 198.613281 144.847656 " fill-opacity="1" fill-rule="nonzero"/></g><g clip-path="url(#c380ccd259)"><path fill="#ffffff" d="M 198.613281 146.078125 L 215.816406 146.078125 M 218.273438 146.078125 L 220.730469 146.078125 M 223.1875 146.078125 L 230.558594 146.078125 M 242.84375 146.078125 L 260.042969 146.078125 M 198.613281 148.535156 L 201.070312 148.535156 M 213.359375 148.535156 L 215.816406 148.535156 M 220.730469 148.535156 L 225.644531 148.535156 M 228.101562 148.535156 L 230.558594 148.535156 M 237.929688 148.535156 L 240.386719 148.535156 M 242.84375 148.535156 L 245.300781 148.535156 M 257.585938 148.535156 L 260.042969 148.535156 M 198.613281 150.992188 L 201.070312 150.992188 M 203.53125 150.992188 L 210.902344 150.992188 M 213.359375 150.992188 L 215.816406 150.992188 M 223.1875 150.992188 L 225.644531 150.992188 M 228.101562 150.992188 L 233.015625 150.992188 M 235.472656 150.992188 L 240.386719 150.992188 M 242.84375 150.992188 L 245.300781 150.992188 M 247.757812 150.992188 L 255.128906 150.992188 M 257.585938 150.992188 L 260.042969 150.992188 M 198.613281 153.449219 L 201.070312 153.449219 M 203.53125 153.449219 L 210.902344 153.449219 M 213.359375 153.449219 L 215.816406 153.449219 M 218.273438 153.449219 L 220.730469 153.449219 M 228.101562 153.449219 L 230.558594 153.449219 M 233.015625 153.449219 L 240.386719 153.449219 M 242.84375 153.449219 L 245.300781 153.449219 M 247.757812 153.449219 L 255.128906 153.449219 M 257.585938 153.449219 L 260.042969 153.449219 M 198.613281 155.90625 L 201.070312 155.90625 M 203.53125 155.90625 L 210.902344 155.90625 M 213.359375 155.90625 L 215.816406 155.90625 M 218.273438 155.90625 L 220.730469 155.90625 M 223.1875 155.90625 L 228.101562 155.90625 M 230.558594 155.90625 L 235.472656 155.90625 M 237.929688 155.90625 L 240.386719 155.90625 M 242.84375 155.90625 L 245.300781 155.90625 M 247.757812 155.90625 L 255.128906 155.90625 M 257.585938 155.90625 L 260.042969 155.90625 M 198.613281 158.363281 L 201.070312 158.363281 M 213.359375 158.363281 L 215.816406 158.363281 M 218.273438 158.363281 L 223.1875 158.363281 M 225.644531 158.363281 L 237.929688 158.363281 M 242.84375 158.363281 L 245.300781 158.363281 M 257.585938 158.363281 L 260.042969 158.363281 M 198.613281 160.820312 L 215.816406 160.820312 M 218.273438 160.820312 L 220.730469 160.820312 M 223.1875 160.820312 L 225.644531 160.820312 M 228.101562 160.820312 L 230.558594 160.820312 M 233.015625 160.820312 L 235.472656 160.820312 M 237.929688 160.820312 L 240.386719 160.820312 M 242.84375 160.820312 L 260.042969 160.820312 M 218.273438 163.277344 L 220.730469 163.277344 M 233.015625 163.277344 L 235.472656 163.277344 M 198.613281 165.734375 L 201.070312 165.734375 M 208.445312 165.734375 L 210.902344 165.734375 M 213.359375 165.734375 L 220.730469 165.734375 M 225.644531 165.734375 L 237.929688 165.734375 M 240.386719 165.734375 L 252.671875 165.734375 M 257.585938 165.734375 L 260.042969 165.734375 M 198.613281 168.191406 L 201.070312 168.191406 M 205.988281 168.191406 L 208.445312 168.191406 M 218.273438 168.191406 L 220.730469 168.191406 M 223.1875 168.191406 L 230.558594 168.191406 M 247.757812 168.191406 L 252.671875 168.191406 M 255.128906 168.191406 L 257.585938 168.191406 M 198.613281 170.648438 L 205.988281 170.648438 M 210.902344 170.648438 L 218.273438 170.648438 M 220.730469 170.648438 L 225.644531 170.648438 M 228.101562 170.648438 L 240.386719 170.648438 M 247.757812 170.648438 L 250.214844 170.648438 M 198.613281 173.105469 L 201.070312 173.105469 M 205.988281 173.105469 L 208.445312 173.105469 M 215.816406 173.105469 L 218.273438 173.105469 M 225.644531 173.105469 L 228.101562 173.105469 M 230.558594 173.105469 L 233.015625 173.105469 M 237.929688 173.105469 L 247.757812 173.105469 M 250.214844 173.105469 L 255.128906 173.105469 M 257.585938 173.105469 L 260.042969 173.105469 M 198.613281 175.5625 L 203.53125 175.5625 M 208.445312 175.5625 L 218.273438 175.5625 M 220.730469 175.5625 L 225.644531 175.5625 M 228.101562 175.5625 L 233.015625 175.5625 M 237.929688 175.5625 L 247.757812 175.5625 M 252.671875 175.5625 L 260.042969 175.5625 M 198.613281 178.019531 L 201.070312 178.019531 M 205.988281 178.019531 L 210.902344 178.019531 M 220.730469 178.019531 L 223.1875 178.019531 M 230.558594 178.019531 L 240.386719 178.019531 M 247.757812 178.019531 L 257.585938 178.019531 M 203.53125 180.476562 L 205.988281 180.476562 M 213.359375 180.476562 L 215.816406 180.476562 M 235.472656 180.476562 L 240.386719 180.476562 M 245.300781 180.476562 L 252.671875 180.476562 M 203.53125 182.933594 L 208.445312 182.933594 M 215.816406 182.933594 L 223.1875 182.933594 M 228.101562 182.933594 L 230.558594 182.933594 M 233.015625 182.933594 L 235.472656 182.933594 M 245.300781 182.933594 L 250.214844 182.933594 M 252.671875 182.933594 L 255.128906 182.933594 M 257.585938 182.933594 L 260.042969 182.933594 M 198.613281 185.390625 L 203.53125 185.390625 M 205.988281 185.390625 L 208.445312 185.390625 M 210.902344 185.390625 L 228.101562 185.390625 M 230.558594 185.390625 L 235.472656 185.390625 M 237.929688 185.390625 L 260.042969 185.390625 M 218.273438 187.847656 L 225.644531 187.847656 M 228.101562 187.847656 L 230.558594 187.847656 M 237.929688 187.847656 L 240.386719 187.847656 M 247.757812 187.847656 L 250.214844 187.847656 M 255.128906 187.847656 L 257.585938 187.847656 M 198.613281 190.304688 L 215.816406 190.304688 M 218.273438 190.304688 L 220.730469 190.304688 M 225.644531 190.304688 L 235.472656 190.304688 M 237.929688 190.304688 L 240.386719 190.304688 M 242.84375 190.304688 L 245.300781 190.304688 M 247.757812 190.304688 L 250.214844 190.304688 M 252.671875 190.304688 L 255.128906 190.304688 M 198.613281 192.761719 L 201.070312 192.761719 M 213.359375 192.761719 L 215.816406 192.761719 M 225.644531 192.761719 L 228.101562 192.761719 M 230.558594 192.761719 L 233.015625 192.761719 M 237.929688 192.761719 L 240.386719 192.761719 M 247.757812 192.761719 L 250.214844 192.761719 M 252.671875 192.761719 L 255.128906 192.761719 M 257.585938 192.761719 L 260.042969 192.761719 M 198.613281 195.21875 L 201.070312 195.21875 M 203.53125 195.21875 L 210.902344 195.21875 M 213.359375 195.21875 L 215.816406 195.21875 M 218.273438 195.21875 L 225.644531 195.21875 M 228.101562 195.21875 L 233.015625 195.21875 M 237.929688 195.21875 L 257.585938 195.21875 M 198.613281 197.675781 L 201.070312 197.675781 M 203.53125 197.675781 L 210.902344 197.675781 M 213.359375 197.675781 L 215.816406 197.675781 M 220.730469 197.675781 L 223.1875 197.675781 M 230.558594 197.675781 L 235.472656 197.675781 M 237.929688 197.675781 L 247.757812 197.675781 M 257.585938 197.675781 L 260.042969 197.675781 M 198.613281 200.132812 L 201.070312 200.132812 M 203.53125 200.132812 L 210.902344 200.132812 M 213.359375 200.132812 L 215.816406 200.132812 M 223.1875 200.132812 L 225.644531 200.132812 M 240.386719 200.132812 L 247.757812 200.132812 M 250.214844 200.132812 L 252.671875 200.132812 M 255.128906 200.132812 L 257.585938 200.132812 M 198.613281 202.589844 L 201.070312 202.589844 M 213.359375 202.589844 L 215.816406 202.589844 M 220.730469 202.589844 L 223.1875 202.589844 M 228.101562 202.589844 L 230.558594 202.589844 M 233.015625 202.589844 L 237.929688 202.589844 M 245.300781 202.589844 L 250.214844 202.589844 M 252.671875 202.589844 L 257.585938 202.589844 M 198.613281 205.046875 L 215.816406 205.046875 M 218.273438 205.046875 L 228.101562 205.046875 M 230.558594 205.046875 L 235.472656 205.046875 M 240.386719 205.046875 L 250.214844 205.046875 M 252.671875 205.046875 L 260.042969 205.046875 " fill-opacity="1" fill-rule="nonzero"/></g><g clip-path="url(#329e8ffd40)"><path stroke-linecap="butt" transform="matrix(2.457104, 0, 0, 2.457104, 198.615138, 144.84774)" fill="none" stroke-linejoin="miter" d="M -0.000755608 0.500746 L 7.000626 0.500746 M 8.000596 0.500746 L 9.000566 0.500746 M 10.000536 0.500746 L 13.000447 0.500746 M 18.000298 0.500746 L 25.000089 0.500746 M -0.000755608 1.500716 L 0.999215 1.500716 M 6.000655 1.500716 L 7.000626 1.500716 M 9.000566 1.500716 L 11.000506 1.500716 M 12.000477 1.500716 L 13.000447 1.500716 M 16.000357 1.500716 L 17.000328 1.500716 M 18.000298 1.500716 L 19.000268 1.500716 M 24.000119 1.500716 L 25.000089 1.500716 M -0.000755608 2.500686 L 0.999215 2.500686 M 2.000775 2.500686 L 5.000685 2.500686 M 6.000655 2.500686 L 7.000626 2.500686 M 10.000536 2.500686 L 11.000506 2.500686 M 12.000477 2.500686 L 14.000417 2.500686 M 15.000387 2.500686 L 17.000328 2.500686 M 18.000298 2.500686 L 19.000268 2.500686 M 20.000238 2.500686 L 23.000149 2.500686 M 24.000119 2.500686 L 25.000089 2.500686 M -0.000755608 3.500656 L 0.999215 3.500656 M 2.000775 3.500656 L 5.000685 3.500656 M 6.000655 3.500656 L 7.000626 3.500656 M 8.000596 3.500656 L 9.000566 3.500656 M 12.000477 3.500656 L 13.000447 3.500656 M 14.000417 3.500656 L 17.000328 3.500656 M 18.000298 3.500656 L 19.000268 3.500656 M 20.000238 3.500656 L 23.000149 3.500656 M 24.000119 3.500656 L 25.000089 3.500656 M -0.000755608 4.500627 L 0.999215 4.500627 M 2.000775 4.500627 L 5.000685 4.500627 M 6.000655 4.500627 L 7.000626 4.500627 M 8.000596 4.500627 L 9.000566 4.500627 M 10.000536 4.500627 L 12.000477 4.500627 M 13.000447 4.500627 L 15.000387 4.500627 M 16.000357 4.500627 L 17.000328 4.500627 M 18.000298 4.500627 L 19.000268 4.500627 M 20.000238 4.500627 L 23.000149 4.500627 M 24.000119 4.500627 L 25.000089 4.500627 M -0.000755608 5.500597 L 0.999215 5.500597 M 6.000655 5.500597 L 7.000626 5.500597 M 8.000596 5.500597 L 10.000536 5.500597 M 11.000506 5.500597 L 16.000357 5.500597 M 18.000298 5.500597 L 19.000268 5.500597 M 24.000119 5.500597 L 25.000089 5.500597 M -0.000755608 6.500567 L 7.000626 6.500567 M 8.000596 6.500567 L 9.000566 6.500567 M 10.000536 6.500567 L 11.000506 6.500567 M 12.000477 6.500567 L 13.000447 6.500567 M 14.000417 6.500567 L 15.000387 6.500567 M 16.000357 6.500567 L 17.000328 6.500567 M 18.000298 6.500567 L 25.000089 6.500567 M 8.000596 7.500537 L 9.000566 7.500537 M 14.000417 7.500537 L 15.000387 7.500537 M -0.000755608 8.500507 L 0.999215 8.500507 M 4.000715 8.500507 L 5.000685 8.500507 M 6.000655 8.500507 L 9.000566 8.500507 M 11.000506 8.500507 L 16.000357 8.500507 M 17.000328 8.500507 L 22.000179 8.500507 M 24.000119 8.500507 L 25.000089 8.500507 M -0.000755608 9.500478 L 0.999215 9.500478 M 3.000745 9.500478 L 4.000715 9.500478 M 8.000596 9.500478 L 9.000566 9.500478 M 10.000536 9.500478 L 13.000447 9.500478 M 20.000238 9.500478 L 22.000179 9.500478 M 23.000149 9.500478 L 24.000119 9.500478 M -0.000755608 10.500448 L 3.000745 10.500448 M 5.000685 10.500448 L 8.000596 10.500448 M 9.000566 10.500448 L 11.000506 10.500448 M 12.000477 10.500448 L 17.000328 10.500448 M 20.000238 10.500448 L 21.000208 10.500448 M -0.000755608 11.500418 L 0.999215 11.500418 M 3.000745 11.500418 L 4.000715 11.500418 M 7.000626 11.500418 L 8.000596 11.500418 M 11.000506 11.500418 L 12.000477 11.500418 M 13.000447 11.500418 L 14.000417 11.500418 M 16.000357 11.500418 L 20.000238 11.500418 M 21.000208 11.500418 L 23.000149 11.500418 M 24.000119 11.500418 L 25.000089 11.500418 M -0.000755608 12.500388 L 2.000775 12.500388 M 4.000715 12.500388 L 8.000596 12.500388 M 9.000566 12.500388 L 11.000506 12.500388 M 12.000477 12.500388 L 14.000417 12.500388 M 16.000357 12.500388 L 20.000238 12.500388 M 22.000179 12.500388 L 25.000089 12.500388 M -0.000755608 13.500358 L 0.999215 13.500358 M 3.000745 13.500358 L 5.000685 13.500358 M 9.000566 13.500358 L 10.000536 13.500358 M 13.000447 13.500358 L 17.000328 13.500358 M 20.000238 13.500358 L 24.000119 13.500358 M 2.000775 14.500329 L 3.000745 14.500329 M 6.000655 14.500329 L 7.000626 14.500329 M 15.000387 14.500329 L 17.000328 14.500329 M 19.000268 14.500329 L 22.000179 14.500329 M 2.000775 15.500299 L 4.000715 15.500299 M 7.000626 15.500299 L 10.000536 15.500299 M 12.000477 15.500299 L 13.000447 15.500299 M 14.000417 15.500299 L 15.000387 15.500299 M 19.000268 15.500299 L 21.000208 15.500299 M 22.000179 15.500299 L 23.000149 15.500299 M 24.000119 15.500299 L 25.000089 15.500299 M -0.000755608 16.500269 L 2.000775 16.500269 M 3.000745 16.500269 L 4.000715 16.500269 M 5.000685 16.500269 L 12.000477 16.500269 M 13.000447 16.500269 L 15.000387 16.500269 M 16.000357 16.500269 L 25.000089 16.500269 M 8.000596 17.500239 L 11.000506 17.500239 M 12.000477 17.500239 L 13.000447 17.500239 M 16.000357 17.500239 L 17.000328 17.500239 M 20.000238 17.500239 L 21.000208 17.500239 M 23.000149 17.500239 L 24.000119 17.500239 M -0.000755608 18.500209 L 7.000626 18.500209 M 8.000596 18.500209 L 9.000566 18.500209 M 11.000506 18.500209 L 15.000387 18.500209 M 16.000357 18.500209 L 17.000328 18.500209 M 18.000298 18.500209 L 19.000268 18.500209 M 20.000238 18.500209 L 21.000208 18.500209 M 22.000179 18.500209 L 23.000149 18.500209 M -0.000755608 19.50018 L 0.999215 19.50018 M 6.000655 19.50018 L 7.000626 19.50018 M 11.000506 19.50018 L 12.000477 19.50018 M 13.000447 19.50018 L 14.000417 19.50018 M 16.000357 19.50018 L 17.000328 19.50018 M 20.000238 19.50018 L 21.000208 19.50018 M 22.000179 19.50018 L 23.000149 19.50018 M 24.000119 19.50018 L 25.000089 19.50018 M -0.000755608 20.50015 L 0.999215 20.50015 M 2.000775 20.50015 L 5.000685 20.50015 M 6.000655 20.50015 L 7.000626 20.50015 M 8.000596 20.50015 L 11.000506 20.50015 M 12.000477 20.50015 L 14.000417 20.50015 M 16.000357 20.50015 L 24.000119 20.50015 M -0.000755608 21.50012 L 0.999215 21.50012 M 2.000775 21.50012 L 5.000685 21.50012 M 6.000655 21.50012 L 7.000626 21.50012 M 9.000566 21.50012 L 10.000536 21.50012 M 13.000447 21.50012 L 15.000387 21.50012 M 16.000357 21.50012 L 20.000238 21.50012 M 24.000119 21.50012 L 25.000089 21.50012 M -0.000755608 22.50009 L 0.999215 22.50009 M 2.000775 22.50009 L 5.000685 22.50009 M 6.000655 22.50009 L 7.000626 22.50009 M 10.000536 22.50009 L 11.000506 22.50009 M 17.000328 22.50009 L 20.000238 22.50009 M 21.000208 22.50009 L 22.000179 22.50009 M 23.000149 22.50009 L 24.000119 22.50009 M -0.000755608 23.50006 L 0.999215 23.50006 M 6.000655 23.50006 L 7.000626 23.50006 M 9.000566 23.50006 L 10.000536 23.50006 M 12.000477 23.50006 L 13.000447 23.50006 M 14.000417 23.50006 L 16.000357 23.50006 M 19.000268 23.50006 L 21.000208 23.50006 M 22.000179 23.50006 L 24.000119 23.50006 M -0.000755608 24.500031 L 7.000626 24.500031 M 8.000596 24.500031 L 12.000477 24.500031 M 13.000447 24.500031 L 15.000387 24.500031 M 17.000328 24.500031 L 21.000208 24.500031 M 22.000179 24.500031 L 25.000089 24.500031 " stroke="#000000" stroke-width="1" stroke-opacity="1" stroke-miterlimit="4"/></g></svg>